<?xml version="1.0" encoding="UTF-8" standalone="no"?>
<!-- Created with Inkscape (http://www.inkscape.org/) -->

<svg
   version="1.1"
   id="svg1"
   width="794.55334"
   height="549.44666"
   viewBox="0 0 794.55334 549.44666"
   sodipodi:docname="Logo.ai"
   xmlns:inkscape="http://www.inkscape.org/namespaces/inkscape"
   xmlns:sodipodi="http://sodipodi.sourceforge.net/DTD/sodipodi-0.dtd"
   xmlns="http://www.w3.org/2000/svg"
   xmlns:svg="http://www.w3.org/2000/svg">
  <defs
     id="defs1">
    <clipPath
       clipPathUnits="userSpaceOnUse"
       id="clipPath2">
      <path
         d="M 0,412.085 H 595.915 V 0 H 0 Z"
         transform="translate(-488.91501,-272.46981)"
         id="path2" />
    </clipPath>
    <clipPath
       clipPathUnits="userSpaceOnUse"
       id="clipPath4">
      <path
         d="M 0,412.085 H 595.915 V 0 H 0 Z"
         transform="translate(-363.80171,-322.13191)"
         id="path4" />
    </clipPath>
    <clipPath
       clipPathUnits="userSpaceOnUse"
       id="clipPath6">
      <path
         d="M 0,412.085 H 595.915 V 0 H 0 Z"
         transform="translate(-350.01071,-210.44691)"
         id="path6" />
    </clipPath>
    <clipPath
       clipPathUnits="userSpaceOnUse"
       id="clipPath8">
      <path
         d="M 0,412.085 H 595.915 V 0 H 0 Z"
         transform="translate(-331.88281,-210.44691)"
         id="path8" />
    </clipPath>
    <clipPath
       clipPathUnits="userSpaceOnUse"
       id="clipPath10">
      <path
         d="M 0,412.085 H 595.915 V 0 H 0 Z"
         transform="translate(-313.75581,-210.44691)"
         id="path10" />
    </clipPath>
    <clipPath
       clipPathUnits="userSpaceOnUse"
       id="clipPath12">
      <path
         d="M 0,412.085 H 595.915 V 0 H 0 Z"
         transform="translate(-273.415,-289.45521)"
         id="path12" />
    </clipPath>
    <clipPath
       clipPathUnits="userSpaceOnUse"
       id="clipPath14">
      <path
         d="M 0,412.085 H 595.915 V 0 H 0 Z"
         transform="translate(-255.28701,-289.45521)"
         id="path14" />
    </clipPath>
    <clipPath
       clipPathUnits="userSpaceOnUse"
       id="clipPath16">
      <path
         d="M 0,412.085 H 595.915 V 0 H 0 Z"
         transform="translate(-524.58391,-79.239404)"
         id="path16" />
    </clipPath>
    <clipPath
       clipPathUnits="userSpaceOnUse"
       id="clipPath18">
      <path
         d="M 0,412.085 H 595.915 V 0 H 0 Z"
         transform="translate(-527.78512,-54.523499)"
         id="path18" />
    </clipPath>
  </defs>
  <sodipodi:namedview
     id="namedview1"
     pagecolor="#ffffff"
     bordercolor="#000000"
     borderopacity="0.25"
     inkscape:showpageshadow="2"
     inkscape:pageopacity="0.0"
     inkscape:pagecheckerboard="0"
     inkscape:deskcolor="#d1d1d1">
    <inkscape:page
       x="0"
       y="0"
       inkscape:label="1"
       id="page1"
       width="794.55334"
       height="549.44666"
       margin="53.524799 85.407997 62.553333 107.79093"
       bleed="0" />
  </sodipodi:namedview>
  <g
     id="layer-MC0"
     inkscape:groupmode="layer"
     inkscape:label="Layer 1">
    <path
       id="path1"
       d="m 0,0 -152.573,-86.171 c -0.687,-0.388 -1.537,-0.336 -2.172,0.133 -31.435,23.224 -62.869,46.447 -94.304,69.67 -0.625,0.462 -0.507,1.429 0.21,1.727 L -213.702,0 h -83.489 c 47.428,-37.808 94.856,-75.615 142.284,-113.423 0.71,-0.565 1.713,-0.582 2.441,-0.04 C -101.645,-75.643 -50.822,-37.821 0,0"
       style="fill:#111844;fill-opacity:1;fill-rule:nonzero;stroke:none"
       transform="matrix(1.3333333,0,0,-1.3333333,651.88667,186.1536)"
       clip-path="url(#clipPath2)" />
    <path
       id="path3"
       d="m 0,0 c -0.69,-0.916 -1.118,-1.516 -1.284,-1.801 -1.237,-0.333 -2.361,-0.69 -3.37,-1.07 -1.012,-0.381 -2.052,-1.035 -3.121,-1.962 0.618,-1.046 1.533,-1.771 2.746,-2.176 1.213,-0.405 2.264,-0.85 3.156,-1.337 0.893,-0.488 1.409,-1.195 1.552,-2.123 0.023,-0.095 0.036,-0.19 0.036,-0.285 0,-0.951 -0.702,-2.378 -2.105,-4.28 -1.26,-1.712 -2.514,-3.424 -3.762,-5.136 -1.249,-1.712 -2.813,-3.08 -4.691,-4.102 -1.141,-0.642 -2.782,-1.035 -4.923,-1.177 -1.165,-0.072 -2.199,-0.107 -3.102,-0.107 -0.737,0 -1.392,0.023 -1.962,0.071 -0.428,0.048 -0.643,0.154 -0.643,0.321 0,0.214 0.322,0.523 0.964,0.928 1.164,0.736 2.657,1.527 4.476,2.372 1.819,0.843 3.585,1.622 5.297,2.336 1.712,0.713 2.627,1.093 2.747,1.141 0.593,0.262 0.927,0.511 0.998,0.749 v 0.143 c 0,0.451 -0.452,0.785 -1.356,0.998 -1.64,0.381 -2.924,0.999 -3.851,1.855 -1.19,1.022 -1.784,2.057 -1.784,3.103 0,0.238 0.036,0.488 0.107,0.749 0.333,1.285 0.928,2.616 1.783,3.995 1.593,2.568 3.728,5.065 6.403,7.491 2.675,2.425 5.119,4.018 7.33,4.779 0.333,0.119 0.593,0.178 0.785,0.178 0.308,0 0.463,-0.131 0.463,-0.392 C 2.889,5.19 2.877,5.13 2.854,5.083 2.734,4.464 2.401,3.692 1.854,2.764 1.308,1.837 0.689,0.915 0,0 M -0.452,-60.087 -35.589,-74.728 H 47.9 C 34.688,-64.195 21.475,-53.663 8.262,-43.13 V 43.039 H -27.163 V -14.89 c -22.407,17.862 -44.815,35.723 -67.221,53.585 -0.71,0.566 -1.713,0.583 -2.441,0.04 -50.822,-37.82 -101.644,-75.641 -152.466,-113.463 l 152.573,86.171 c 0.687,0.388 1.537,0.336 2.172,-0.132 31.435,-23.224 62.869,-46.447 94.304,-69.671 0.625,-0.462 0.508,-1.429 -0.21,-1.727"
       style="fill:#921a1c;fill-opacity:1;fill-rule:nonzero;stroke:none"
       transform="matrix(1.3333333,0,0,-1.3333333,485.06893,119.93747)"
       clip-path="url(#clipPath4)" />
    <path
       id="path5"
       d="m 0,0 h 7.724 c 1.463,0 2.648,1.186 2.648,2.649 v 8.872 c 0,1.463 -1.185,2.649 -2.648,2.649 L 0,14.17 c -1.463,0 -2.649,-1.186 -2.649,-2.649 V 2.649 C -2.649,1.186 -1.463,0 0,0"
       style="fill:#111844;fill-opacity:1;fill-rule:nonzero;stroke:none"
       transform="matrix(1.3333333,0,0,-1.3333333,466.68093,268.8508)"
       clip-path="url(#clipPath6)" />
    <path
       id="path7"
       d="m 0,0 h 7.724 c 1.463,0 2.649,1.186 2.649,2.649 v 8.872 c 0,1.463 -1.186,2.649 -2.649,2.649 L 0,14.17 c -1.463,0 -2.648,-1.186 -2.648,-2.649 V 2.649 C -2.648,1.186 -1.463,0 0,0"
       style="fill:#111844;fill-opacity:1;fill-rule:nonzero;stroke:none"
       transform="matrix(1.3333333,0,0,-1.3333333,442.5104,268.8508)"
       clip-path="url(#clipPath8)" />
    <path
       id="path9"
       d="m 0,0 h 7.723 c 1.463,0 2.649,1.186 2.649,2.649 v 8.872 c 0,1.463 -1.186,2.649 -2.649,2.649 L 0,14.17 c -1.464,0 -2.649,-1.186 -2.649,-2.649 V 2.649 C -2.649,1.186 -1.464,0 0,0"
       style="fill:#111844;fill-opacity:1;fill-rule:nonzero;stroke:none"
       transform="matrix(1.3333333,0,0,-1.3333333,418.34107,268.8508)"
       clip-path="url(#clipPath10)" />
    <path
       id="path11"
       d="m 0,0 h 7.723 c 1.464,0 2.649,1.186 2.649,2.649 v 8.872 c 0,1.463 -1.185,2.649 -2.649,2.649 L 0,14.17 c -1.463,0 -2.649,-1.186 -2.649,-2.649 V 2.649 C -2.649,1.186 -1.463,0 0,0"
       style="fill:#921a1c;fill-opacity:1;fill-rule:nonzero;stroke:none"
       transform="matrix(1.3333333,0,0,-1.3333333,364.55333,163.5064)"
       clip-path="url(#clipPath12)" />
    <path
       id="path13"
       d="m 0,0 h 7.724 c 1.463,0 2.649,1.186 2.649,2.649 v 8.872 c 0,1.463 -1.186,2.649 -2.649,2.649 L 0,14.17 c -1.463,0 -2.649,-1.186 -2.649,-2.649 V 2.649 C -2.649,1.186 -1.463,0 0,0"
       style="fill:#921a1c;fill-opacity:1;fill-rule:nonzero;stroke:none"
       transform="matrix(1.3333333,0,0,-1.3333333,340.38267,163.5064)"
       clip-path="url(#clipPath14)" />
    <path
       id="path15"
       d="M 0,0 H -4.272 -4.373 -6.73 v 11.809 h -4.635 V 0 h -2.579 -0.102 -2.056 v 18.661 h -4.654 V -1.552 c 0.013,-0.511 0.134,-1.021 0.362,-1.532 0.47,-1.02 1.27,-1.531 2.399,-1.531 h 3.949 0.102 9.571 0.101 6.167 c 1.127,0 1.92,0.504 2.377,1.511 0.229,0.497 0.349,1 0.363,1.511 V 11.809 H 0 Z m 4.574,20.313 -2.74,2.721 -2.721,-2.721 2.721,-2.741 z m -2.74,-3.849 2.7,-2.7 2.741,2.72 -2.741,2.741 -2.7,-2.701 -2.721,2.701 -2.72,-2.741 2.72,-2.72 z m -14.429,-25.714 2.741,-2.741 2.72,2.741 -2.72,2.74 z m -20.998,25.795 2.721,-2.721 2.72,2.74 -2.72,2.742 -2.721,-2.721 -2.701,2.721 -2.74,-2.742 2.74,-2.74 z M -28.394,0 H -42.48 v 4.091 c 0,0.846 0.309,1.571 0.926,2.176 0.606,0.618 1.33,0.927 2.177,0.927 h 1.33 v 4.615 h -1.33 c -2.109,0 -3.909,-0.739 -5.4,-2.217 -1.505,-1.478 -2.278,-3.272 -2.318,-5.38 v -8.827 h 23.316 v 16.424 h -4.615 z m -31.901,7.113 h -4.212 c -0.819,0 -1.525,-0.282 -2.116,-0.846 C -67.214,5.703 -67.53,5.018 -67.57,4.212 V 0 h 7.275 z m -4.212,4.696 h 8.826 V -2.52 c 0,-2.122 -0.745,-3.936 -2.236,-5.441 -1.505,-1.518 -3.318,-2.276 -5.441,-2.276 h -1.471 v 2.821 h 1.471 c 0.725,0 1.377,0.282 1.955,0.846 0.564,0.538 0.92,1.189 1.068,1.955 h -11.85 v 8.706 c 0,2.149 0.746,3.97 2.237,5.461 1.505,1.505 3.318,2.257 5.441,2.257 m -19.347,-19.85 v 0.201 c 0,0.471 0.236,0.706 0.706,0.706 h 0.363 c 0.362,0 0.597,-0.181 0.705,-0.545 h 1.068 c -0.094,1.075 -0.685,1.613 -1.773,1.613 h -0.363 c -0.498,0 -0.92,-0.168 -1.27,-0.504 -0.336,-0.349 -0.504,-0.773 -0.504,-1.27 v -0.201 c 0,-0.255 0.041,-0.49 0.121,-0.705 h -0.624 v -1.572 h 4.654 v 1.572 h -2.558 c -0.35,0.094 -0.525,0.329 -0.525,0.705 m -1.531,3.426 h 4.614 v 23.276 h -4.614 z m -6.953,21.2 -2.7,2.721 -2.74,-2.742 2.74,-2.74 2.7,2.721 2.721,-2.721 2.721,2.74 -2.721,2.742 z m -13.985,-9.351 h -4.293 c -0.847,0 -1.572,-0.309 -2.177,-0.926 -0.604,-0.605 -0.906,-1.33 -0.906,-2.177 V 0 h 7.376 z m 11.507,4.575 h 4.634 V -1.593 c -0.013,-0.511 -0.133,-1.014 -0.362,-1.511 -0.457,-1.007 -1.25,-1.511 -2.378,-1.511 h -6.167 -0.1 -21.724 -0.102 -3.949 c -1.129,0 -1.929,0.511 -2.398,1.531 -0.229,0.511 -0.35,1.021 -0.363,1.532 v 20.213 h 4.655 V 0 h 2.055 0.102 2.579 v 4.212 c 0.04,2.108 0.813,3.909 2.317,5.4 1.504,1.492 3.305,2.238 5.401,2.238 h 8.928 V 0 h 2.499 0.1 4.273 z m -14.913,4.736 2.72,-2.721 2.721,2.74 -2.721,2.742 -2.72,-2.721 -2.701,2.721 -2.741,-2.742 2.741,-2.74 z m -26.782,0.08 -2.72,2.741 -2.742,-2.741 2.742,-2.74 z M -135.362,0 h -8.585 c -0.847,0 -1.566,0.309 -2.157,0.927 -0.604,0.604 -0.907,1.33 -0.907,2.177 V 4.05 c 0.028,0.874 0.329,1.612 0.907,2.217 0.591,0.618 1.31,0.927 2.157,0.927 h 1.41 v 4.656 h -1.41 c -2.123,0 -3.937,-0.753 -5.442,-2.258 -1.491,-1.505 -2.236,-3.325 -2.236,-5.461 V 3.104 c 0,-2.124 0.745,-3.944 2.236,-5.462 1.505,-1.505 3.319,-2.257 5.442,-2.257 h 13.199 V 11.85 h -4.614 z m -29.483,0 h -2.58 -0.1 -2.257 v 18.661 h -4.636 V 3.104 c 0,-0.847 -0.296,-1.573 -0.887,-2.177 C -175.909,0.309 -176.642,0 -177.501,0 h -1.37 v 18.661 h -4.615 V 0 h -2.519 l 1.491,-4.615 h 7.013 c 2.324,0 4.238,0.84 5.743,2.518 v -2.518 h 4.233 0.1 4.474 v 0.04 c 1.129,0 1.922,0.504 2.378,1.512 0.228,0.497 0.349,1 0.363,1.511 v 20.213 h -4.635 z m -28.818,0 h -3.708 v 11.809 h -4.615 V 0 h -3.627 v 11.809 h -4.635 V 0 h -2.579 -0.102 -4.131 v 11.809 h -4.634 V 0 h -4.273 -0.101 -2.579 v 11.809 h -4.635 V 0 h -3.708 v 11.809 h -4.615 V 0 h -3.627 v 11.809 h -4.636 V 0 h -2.579 -0.101 -2.056 v 18.661 h -4.655 V -1.552 c 0.013,-0.511 0.134,-1.021 0.363,-1.532 0.47,-1.02 1.27,-1.531 2.398,-1.531 h 3.95 0.101 4.433 c 0.994,0 1.726,0.383 2.197,1.148 0.618,-0.765 1.471,-1.148 2.559,-1.148 h 3.507 c 1.021,0 1.766,0.409 2.237,1.229 0.591,-0.82 1.471,-1.229 2.639,-1.229 h 8.807 0.101 13.038 0.102 4.432 c 0.995,0 1.727,0.383 2.197,1.148 0.618,-0.765 1.471,-1.148 2.559,-1.148 h 3.507 c 1.021,0 1.767,0.409 2.236,1.229 0.592,-0.82 1.472,-1.229 2.641,-1.229 h 3.466 c 1.129,0 1.928,0.504 2.398,1.511 0.229,0.497 0.349,1 0.363,1.511 v 13.402 h -4.635 z m -25.553,16.545 2.721,-2.721 2.721,2.74 -2.721,2.742 -2.721,-2.721 -2.701,2.721 -2.74,-2.742 2.74,-2.74 z m -20.273,-0.081 2.7,-2.7 2.741,2.72 -2.741,2.741 -2.7,-2.701 -2.721,2.701 -2.72,-2.741 2.72,-2.72 z m 2.74,3.849 -2.74,2.721 -2.721,-2.721 2.721,-2.741 z m -30.208,-24.424 c 0,-0.873 -0.295,-1.653 -0.887,-2.338 -0.617,-0.698 -1.35,-1.048 -2.196,-1.048 h -1.451 v -2.821 h 1.451 c 2.136,0 3.963,0.758 5.481,2.277 1.518,1.505 2.277,3.318 2.277,5.441 v 14.45 h -4.675 z m -12.172,-0.504 h 4.615 v 23.276 h -4.615 z m -12.837,21.16 2.72,-2.721 2.721,2.74 -2.721,2.742 -2.72,-2.721 -2.701,2.721 -2.74,-2.742 2.74,-2.74 z M -286.767,0 h -14.087 v 4.091 c 0,0.846 0.31,1.571 0.928,2.176 0.604,0.618 1.33,0.927 2.176,0.927 h 1.33 v 4.615 h -1.33 c -2.109,0 -3.909,-0.739 -5.401,-2.217 -1.504,-1.478 -2.277,-3.272 -2.317,-5.38 v -8.827 h 23.316 v 16.424 h -4.615 z m -31.901,-4.615 h 4.615 v 23.276 h -4.615 z m -17.411,8.746 c 0,0.847 -0.309,1.572 -0.927,2.177 -0.605,0.617 -1.33,0.926 -2.177,0.926 h -2.478 c 1.383,-1.383 2.076,-2.996 2.076,-4.837 0,-0.819 -0.155,-1.619 -0.464,-2.397 h 1.491 c 0.86,0 1.686,-0.121 2.479,-0.363 z m -7.477,-1.734 c 0,0.74 -0.262,1.364 -0.786,1.874 -0.511,0.511 -1.128,0.767 -1.854,0.767 -0.725,0 -1.35,-0.256 -1.874,-0.767 -0.511,-0.51 -0.765,-1.134 -0.765,-1.874 0,-1.087 0.51,-1.887 1.531,-2.397 h 2.217 c 1.021,0.51 1.531,1.31 1.531,2.397 m 17.23,16.264 h 4.636 V -1.552 c -0.014,-0.511 -0.135,-1.014 -0.363,-1.511 -0.457,-1.008 -1.25,-1.512 -2.378,-1.512 v -0.04 h -4.474 -0.101 -2.458 v -0.081 l -2.6,-1.572 c -0.685,1.102 -1.592,1.653 -2.721,1.653 h -18.6 -0.101 -9.613 -0.1 -16.868 V 0 h 9.915 v 4.252 c -0.027,0.806 -0.336,1.498 -0.927,2.075 -0.605,0.578 -1.317,0.867 -2.136,0.867 h -4.998 v 4.615 h 4.998 c 2.123,0 3.943,-0.752 5.461,-2.257 1.505,-1.519 2.257,-3.339 2.257,-5.461 V 0 h 2.298 0.1 2.58 v 11.85 h 4.635 V 0 h 2.398 0.101 3.043 c -0.309,0.778 -0.464,1.578 -0.464,2.397 0,1.519 0.464,2.869 1.391,4.051 0.914,1.169 2.089,1.955 3.526,2.359 v 3.043 h 8.706 c 2.123,0 3.943,-0.753 5.462,-2.258 1.504,-1.518 2.257,-3.338 2.257,-5.461 V 0 h 2.458 0.101 2.579 z m -31.417,-2.036 -2.72,2.741 -2.741,-2.741 2.741,-2.74 z m -71.521,-9.431 h -6.307 c -0.846,0 -1.572,-0.309 -2.177,-0.927 -0.618,-0.605 -0.927,-1.33 -0.927,-2.176 V 0 h 9.411 z m 39.539,4.615 h 4.635 V -1.593 c -0.013,-0.511 -0.134,-1.014 -0.362,-1.511 -0.471,-1.007 -1.27,-1.511 -2.399,-1.511 h -3.466 c -1.168,0 -2.049,0.409 -2.64,1.229 -0.47,-0.82 -1.216,-1.229 -2.236,-1.229 h -3.507 c -1.088,0 -1.942,0.383 -2.559,1.148 -0.471,-0.765 -1.203,-1.148 -2.197,-1.148 h -4.433 -0.101 -13.039 -0.1 -3.487 c -1.531,0 -2.607,0.786 -3.224,2.357 l -1.411,-2.357 h -13.039 v 8.827 c 0.041,2.108 0.813,3.902 2.318,5.38 1.492,1.478 3.291,2.217 5.401,2.217 h 3.385 c 1.344,0 2.318,-0.578 2.922,-1.733 v 1.733 h 4.636 V 0 h 2.499 0.1 4.273 v 11.809 h 4.635 V 0 h 4.131 0.101 2.579 v 11.809 h 4.635 V 0 h 3.628 v 11.809 h 4.614 V 0 h 3.708 z m -26.822,-20.435 -2.701,2.721 -2.74,-2.741 2.74,-2.741 2.701,2.721 2.72,-2.721 2.721,2.741 -2.721,2.741 z m -20.374,22.45 -2.741,2.74 2.741,2.742 2.7,-2.721 2.721,2.721 2.72,-2.742 -2.72,-2.74 -2.721,2.721 z"
       style="fill:#921a1c;fill-opacity:1;fill-rule:nonzero;stroke:none"
       transform="matrix(1.3333333,0,0,-1.3333333,699.4452,443.79413)"
       clip-path="url(#clipPath16)" />
    <path
       id="path17"
       d="m 0,0 -1.546,-5.288 c -0.203,-0.631 -0.386,-1.383 -0.528,-1.933 h -0.062 c -0.141,0.55 -0.365,1.302 -0.569,1.912 L -4.475,0 H -7.24 l 3.64,-9.092 c 0.102,-0.244 0.122,-0.387 0.122,-0.488 0,-0.122 -0.041,-0.265 -0.142,-0.447 -0.346,-0.671 -0.895,-1.261 -1.383,-1.567 -0.509,-0.366 -1.018,-0.59 -1.444,-0.691 l 0.569,-2.095 c 0.61,0.081 1.627,0.406 2.624,1.261 1.159,1.017 2.074,2.665 3.438,6.366 L 2.665,0 Z m -11.917,0.224 c -1.647,0 -2.726,-0.936 -3.174,-1.708 h -0.06 L -15.273,0 h -2.177 c 0.041,-0.854 0.082,-1.81 0.082,-2.949 v -6.956 h 2.502 v 5.838 c 0,0.284 0.04,0.589 0.121,0.793 0.265,0.753 0.956,1.464 1.953,1.464 1.362,0 1.892,-1.078 1.892,-2.502 v -5.593 h 2.502 v 5.878 c 0,3.132 -1.79,4.251 -3.519,4.251 m -10.536,-5.288 c -1.77,0.02 -3.457,-0.346 -3.457,-1.851 0,-0.977 0.63,-1.424 1.423,-1.424 1.017,0 1.729,0.651 1.973,1.362 0.061,0.184 0.061,0.367 0.061,0.55 z m 2.441,-2.461 c 0,-0.896 0.04,-1.77 0.162,-2.38 h -2.257 l -0.183,1.098 h -0.062 c -0.589,-0.773 -1.627,-1.322 -2.928,-1.322 -1.993,0 -3.112,1.444 -3.112,2.949 0,2.482 2.217,3.763 5.878,3.742 v 0.164 c 0,0.65 -0.264,1.728 -2.013,1.728 -0.977,0 -1.994,-0.305 -2.665,-0.731 l -0.489,1.627 c 0.733,0.447 2.014,0.874 3.58,0.874 3.173,0 4.089,-2.014 4.089,-4.19 z m -12.285,2.603 c 0,1.749 -0.854,3.173 -2.461,3.173 -1.037,0 -1.993,-0.753 -2.258,-1.851 -0.041,-0.204 -0.081,-0.427 -0.081,-0.63 v -1.526 c 0,-0.244 0.02,-0.468 0.061,-0.691 0.265,-1.018 1.139,-1.749 2.217,-1.749 1.587,0 2.522,1.321 2.522,3.274 m 2.542,0.102 c 0,-3.58 -2.257,-5.309 -4.515,-5.309 -1.241,0 -2.278,0.528 -2.787,1.322 h -0.04 v -5.126 h -2.502 v 10.638 c 0,1.302 -0.041,2.359 -0.082,3.295 h 2.198 l 0.122,-1.525 h 0.04 c 0.732,1.119 1.891,1.749 3.397,1.749 2.278,0 4.169,-1.953 4.169,-5.044 m -15.782,5.044 c -0.834,0 -1.465,-0.203 -2.034,-0.59 -0.448,-0.284 -0.854,-0.692 -1.2,-1.24 h -0.041 c -0.427,1.098 -1.444,1.83 -2.746,1.83 -1.688,0 -2.583,-0.915 -3.05,-1.688 H -54.67 L -54.792,0 h -2.136 c 0.041,-0.854 0.082,-1.81 0.082,-2.949 v -6.956 h 2.441 v 5.858 c 0,0.284 0.041,0.569 0.122,0.833 0.244,0.672 0.875,1.404 1.81,1.404 1.16,0 1.708,-0.976 1.708,-2.359 v -5.736 h 2.442 v 5.939 c 0,0.284 0.04,0.611 0.122,0.834 0.263,0.712 0.894,1.322 1.749,1.322 1.2,0 1.769,-0.976 1.769,-2.624 v -5.471 h 2.441 v 5.838 c 0,3.172 -1.668,4.291 -3.295,4.291 m -15.946,-5.146 c 0,1.546 -0.692,3.336 -2.401,3.336 -1.769,0 -2.481,-1.729 -2.481,-3.377 0,-1.912 0.956,-3.355 2.461,-3.355 1.424,0 2.421,1.382 2.421,3.396 m 2.583,0.061 c 0,-3.641 -2.563,-5.268 -5.085,-5.268 -2.786,0 -4.963,1.912 -4.963,5.106 0,3.253 2.135,5.247 5.126,5.247 2.949,0 4.922,-2.075 4.922,-5.085 m -14.238,6.814 c 1.119,0 2.034,-0.244 2.685,-0.529 l 0.529,1.993 c -0.509,0.265 -1.668,0.61 -3.315,0.61 -4.191,0 -7.343,-2.725 -7.343,-7.241 0,-4.189 2.644,-6.915 6.997,-6.915 1.668,0 2.97,0.325 3.56,0.61 l -0.408,1.973 c -0.671,-0.285 -1.728,-0.488 -2.725,-0.488 -3.03,0 -4.78,1.912 -4.78,4.942 0,3.296 2.014,5.045 4.8,5.045 m -16.21,-5.919 c 0,0.244 -0.02,0.468 -0.081,0.671 -0.264,0.915 -0.976,1.608 -2.034,1.608 -1.403,0 -2.44,-1.221 -2.44,-3.235 0,-1.688 0.853,-3.051 2.42,-3.051 0.935,0 1.749,0.611 2.034,1.526 0.081,0.244 0.101,0.59 0.101,0.874 z M -88.94,0 h 2.175 c -0.04,-0.671 -0.081,-1.484 -0.081,-2.848 v -5.613 c 0,-2.075 -0.427,-3.56 -1.465,-4.495 -1.016,-0.915 -2.46,-1.2 -3.823,-1.2 -1.262,0 -2.603,0.285 -3.458,0.793 l 0.549,1.891 c 0.631,-0.366 1.689,-0.752 2.889,-0.752 1.627,0 2.847,0.854 2.847,2.99 v 0.854 h -0.041 c -0.569,-0.874 -1.566,-1.465 -2.888,-1.465 -2.461,0 -4.21,2.034 -4.21,4.842 0,3.254 2.115,5.227 4.495,5.227 1.525,0 2.4,-0.732 2.868,-1.546 h 0.04 z m -13.058,0.224 c -1.648,0 -2.726,-0.936 -3.174,-1.708 h -0.06 L -105.354,0 h -2.177 c 0.041,-0.854 0.082,-1.81 0.082,-2.949 v -6.956 h 2.502 v 5.838 c 0,0.284 0.04,0.589 0.121,0.793 0.264,0.753 0.956,1.464 1.953,1.464 1.362,0 1.892,-1.078 1.892,-2.502 v -5.593 h 2.502 v 5.878 c 0,3.132 -1.791,4.251 -3.519,4.251 m -10.657,-10.129 h 2.502 V 0 h -2.502 z m 1.26,14.034 c -0.834,0 -1.403,-0.59 -1.403,-1.362 0,-0.733 0.549,-1.343 1.383,-1.343 0.875,0 1.424,0.61 1.424,1.343 -0.021,0.772 -0.549,1.362 -1.404,1.362 m -5.533,-1.586 -2.461,-0.691 V 0 h -1.403 v -1.871 h 1.403 v -4.658 c 0,-1.302 0.244,-2.217 0.794,-2.786 0.468,-0.509 1.22,-0.814 2.156,-0.814 0.773,0 1.444,0.122 1.81,0.265 l -0.041,1.891 c -0.284,-0.082 -0.528,-0.101 -0.976,-0.101 -0.956,0 -1.282,0.609 -1.282,1.83 v 4.373 h 2.38 V 0 h -2.38 z m -8.093,-12.448 h 2.502 V 4.536 h -2.502 z M -127.726,0 h -2.502 v -5.979 c 0,-0.286 -0.041,-0.57 -0.142,-0.774 -0.244,-0.65 -0.895,-1.342 -1.912,-1.342 -1.322,0 -1.851,1.058 -1.851,2.705 V 0 h -2.502 v -5.817 c 0,-3.234 1.648,-4.312 3.438,-4.312 1.79,0 2.766,1.017 3.193,1.708 h 0.061 l 0.122,-1.484 h 2.176 c -0.041,0.813 -0.081,1.79 -0.081,2.969 z m -13.566,-3.986 c -1.262,0.467 -1.729,0.753 -1.729,1.382 0,0.611 0.488,1.058 1.383,1.058 0.874,0 1.688,-0.325 2.095,-0.569 l 0.509,1.749 c -0.59,0.326 -1.546,0.59 -2.645,0.59 -2.299,0 -3.742,-1.342 -3.742,-3.091 0,-1.18 0.793,-2.238 2.726,-2.889 1.219,-0.447 1.627,-0.773 1.627,-1.444 0,-0.651 -0.489,-1.118 -1.587,-1.118 -0.895,0 -1.973,0.385 -2.522,0.731 l -0.509,-1.83 c 0.733,-0.407 1.811,-0.691 3.01,-0.691 2.624,0 4.028,1.301 4.028,3.111 -0.02,1.465 -0.834,2.38 -2.644,3.011 m -9.966,4.21 c -1.647,0 -2.725,-0.936 -3.174,-1.708 h -0.06 L -154.614,0 h -2.177 c 0.041,-0.854 0.082,-1.81 0.082,-2.949 v -6.956 h 2.502 v 5.838 c 0,0.284 0.04,0.589 0.121,0.793 0.265,0.753 0.956,1.464 1.953,1.464 1.362,0 1.892,-1.078 1.892,-2.502 v -5.593 h 2.502 v 5.878 c 0,3.132 -1.79,4.251 -3.519,4.251 m -10.088,-5.146 c 0,1.546 -0.691,3.336 -2.4,3.336 -1.77,0 -2.482,-1.729 -2.482,-3.377 0,-1.912 0.957,-3.355 2.461,-3.355 1.424,0 2.421,1.382 2.421,3.396 m 2.583,0.061 c 0,-3.641 -2.562,-5.268 -5.085,-5.268 -2.786,0 -4.963,1.912 -4.963,5.106 0,3.253 2.136,5.247 5.126,5.247 2.95,0 4.922,-2.075 4.922,-5.085 M -173,1.953 c 1.119,0 2.034,-0.244 2.685,-0.529 l 0.529,1.993 c -0.509,0.265 -1.668,0.61 -3.316,0.61 -4.19,0 -7.342,-2.725 -7.342,-7.241 0,-4.189 2.644,-6.915 6.997,-6.915 1.668,0 2.969,0.325 3.559,0.61 l -0.407,1.973 c -0.671,-0.285 -1.728,-0.488 -2.726,-0.488 -3.03,0 -4.779,1.912 -4.779,4.942 0,3.296 2.014,5.045 4.8,5.045 m -16.21,-5.919 c 0,0.244 -0.02,0.468 -0.081,0.671 -0.265,0.915 -0.977,1.608 -2.034,1.608 -1.404,0 -2.442,-1.221 -2.442,-3.235 0,-1.688 0.855,-3.051 2.421,-3.051 0.936,0 1.749,0.611 2.034,1.526 0.082,0.244 0.102,0.59 0.102,0.874 z M -188.803,0 h 2.176 c -0.04,-0.671 -0.081,-1.484 -0.081,-2.848 v -5.613 c 0,-2.075 -0.428,-3.56 -1.465,-4.495 -1.016,-0.915 -2.461,-1.2 -3.823,-1.2 -1.262,0 -2.604,0.285 -3.458,0.793 l 0.549,1.891 c 0.631,-0.366 1.688,-0.752 2.888,-0.752 1.627,0 2.848,0.854 2.848,2.99 v 0.854 h -0.041 c -0.569,-0.874 -1.566,-1.465 -2.889,-1.465 -2.461,0 -4.21,2.034 -4.21,4.842 0,3.254 2.116,5.227 4.496,5.227 1.525,0 2.4,-0.732 2.868,-1.546 h 0.04 z m -13.057,0.224 c -1.648,0 -2.726,-0.936 -3.174,-1.708 h -0.061 L -205.217,0 h -2.177 c 0.041,-0.854 0.082,-1.81 0.082,-2.949 v -6.956 h 2.502 v 5.838 c 0,0.284 0.04,0.589 0.122,0.793 0.264,0.753 0.956,1.464 1.953,1.464 1.362,0 1.891,-1.078 1.891,-2.502 v -5.593 h 2.502 v 5.878 c 0,3.132 -1.79,4.251 -3.518,4.251 m -10.659,-10.129 h 2.502 V 0 h -2.502 z m 1.261,14.034 c -0.834,0 -1.403,-0.59 -1.403,-1.362 0,-0.733 0.549,-1.343 1.383,-1.343 0.875,0 1.424,0.61 1.424,1.343 -0.021,0.772 -0.549,1.362 -1.404,1.362 m -6.263,-6 h -0.062 L -217.685,0 h -2.156 c 0.062,-0.874 0.082,-1.851 0.082,-3.193 v -6.712 h 2.502 v 5.146 c 0,0.264 0.02,0.529 0.061,0.752 0.223,1.14 1.057,1.892 2.237,1.892 0.306,0 0.529,-0.021 0.753,-0.061 v 2.339 c -0.204,0.041 -0.346,0.061 -0.59,0.061 -1.078,0 -2.237,-0.712 -2.725,-2.095 m -6.611,-2.034 c 0.021,0.916 -0.386,2.421 -2.054,2.421 -1.545,0 -2.196,-1.404 -2.298,-2.421 z m 2.36,-0.692 c 0,-0.467 -0.04,-0.834 -0.082,-1.057 h -6.63 c 0.061,-1.79 1.444,-2.563 3.05,-2.563 1.161,0 1.974,0.183 2.747,0.447 l 0.366,-1.709 c -0.855,-0.366 -2.034,-0.629 -3.458,-0.629 -3.214,0 -5.105,1.972 -5.105,5.003 0,2.746 1.668,5.329 4.841,5.329 3.213,0 4.271,-2.644 4.271,-4.821 m -12.854,0.692 c 0.021,0.916 -0.387,2.421 -2.054,2.421 -1.546,0 -2.197,-1.404 -2.299,-2.421 z m 2.359,-0.692 c 0,-0.467 -0.04,-0.834 -0.081,-1.057 h -6.631 c 0.061,-1.79 1.444,-2.563 3.051,-2.563 1.159,0 1.973,0.183 2.746,0.447 l 0.366,-1.709 c -0.854,-0.366 -2.034,-0.629 -3.457,-0.629 -3.214,0 -5.106,1.972 -5.106,5.003 0,2.746 1.668,5.329 4.841,5.329 3.214,0 4.271,-2.644 4.271,-4.821 m -14.664,4.821 c -1.648,0 -2.726,-0.936 -3.173,-1.708 h -0.061 L -250.287,0 h -2.176 c 0.04,-0.854 0.081,-1.81 0.081,-2.949 v -6.956 h 2.502 v 5.838 c 0,0.284 0.04,0.589 0.122,0.793 0.264,0.753 0.956,1.464 1.952,1.464 1.363,0 1.892,-1.078 1.892,-2.502 v -5.593 h 2.502 v 5.878 c 0,3.132 -1.79,4.251 -3.519,4.251 m -9.397,3.905 c -0.834,0 -1.403,-0.59 -1.403,-1.362 0,-0.733 0.549,-1.343 1.383,-1.343 0.875,0 1.424,0.61 1.424,1.343 -0.02,0.772 -0.549,1.362 -1.404,1.362 m -1.261,-14.034 h 2.502 V 0 h -2.502 z m -5.105,5.939 c 0,0.244 -0.02,0.468 -0.081,0.671 -0.265,0.915 -0.976,1.608 -2.034,1.608 -1.404,0 -2.441,-1.221 -2.441,-3.235 0,-1.688 0.854,-3.051 2.42,-3.051 0.936,0 1.75,0.611 2.035,1.526 0.081,0.244 0.101,0.59 0.101,0.874 z M -262.287,0 h 2.176 c -0.04,-0.671 -0.081,-1.484 -0.081,-2.848 v -5.613 c 0,-2.075 -0.427,-3.56 -1.465,-4.495 -1.016,-0.915 -2.461,-1.2 -3.823,-1.2 -1.262,0 -2.604,0.285 -3.458,0.793 l 0.549,1.891 c 0.631,-0.366 1.688,-0.752 2.888,-0.752 1.627,0 2.848,0.854 2.848,2.99 v 0.854 h -0.041 c -0.569,-0.874 -1.566,-1.465 -2.888,-1.465 -2.461,0 -4.21,2.034 -4.21,4.842 0,3.254 2.115,5.227 4.495,5.227 1.525,0 2.4,-0.732 2.868,-1.546 h 0.04 z m -13.057,0.224 c -1.648,0 -2.726,-0.936 -3.173,-1.708 h -0.061 L -278.7,0 h -2.176 c 0.04,-0.854 0.081,-1.81 0.081,-2.949 v -6.956 h 2.502 v 5.838 c 0,0.284 0.04,0.589 0.122,0.793 0.264,0.753 0.956,1.464 1.952,1.464 1.363,0 1.892,-1.078 1.892,-2.502 v -5.593 h 2.502 v 5.878 c 0,3.132 -1.79,4.251 -3.519,4.251 m -13.323,-4.047 h 5.167 v 2.033 h -5.167 v 3.54 h 5.472 v 2.054 h -7.973 V -9.905 h 8.278 v 2.054 h -5.777 z m -12.996,4.047 c -1.647,0 -2.725,-0.936 -3.172,-1.708 h -0.061 L -305.019,0 h -2.176 c 0.041,-0.854 0.081,-1.81 0.081,-2.949 v -6.956 h 2.502 v 5.838 c 0,0.284 0.041,0.589 0.122,0.793 0.264,0.753 0.956,1.464 1.953,1.464 1.363,0 1.891,-1.078 1.891,-2.502 v -5.593 h 2.502 v 5.878 c 0,3.132 -1.79,4.251 -3.519,4.251 m -10.535,-5.288 c -1.769,0.02 -3.458,-0.346 -3.458,-1.851 0,-0.977 0.631,-1.424 1.424,-1.424 1.017,0 1.729,0.651 1.973,1.362 0.061,0.184 0.061,0.367 0.061,0.55 z m 2.441,-2.461 c 0,-0.896 0.041,-1.77 0.163,-2.38 h -2.258 l -0.183,1.098 h -0.061 c -0.59,-0.773 -1.628,-1.322 -2.929,-1.322 -1.994,0 -3.112,1.444 -3.112,2.949 0,2.482 2.217,3.763 5.878,3.742 v 0.164 c 0,0.65 -0.264,1.728 -2.013,1.728 -0.977,0 -1.994,-0.305 -2.665,-0.731 l -0.488,1.627 c 0.732,0.447 2.013,0.874 3.579,0.874 3.174,0 4.089,-2.014 4.089,-4.19 z m -12.875,3.437 c 0,0.203 -0.02,0.427 -0.061,0.61 -0.224,0.936 -1.017,1.729 -2.136,1.729 -1.627,0 -2.522,-1.362 -2.522,-3.234 0,-1.81 0.875,-3.173 2.461,-3.173 1.017,0 1.851,0.651 2.136,1.647 0.082,0.224 0.122,0.53 0.122,0.774 z M -322.469,0 h 2.421 c -0.041,-0.895 -0.082,-1.83 -0.082,-2.867 v -11.066 h -2.502 v 5.39 h -0.04 c -0.59,-0.955 -1.628,-1.586 -3.072,-1.586 -2.237,0 -4.149,1.933 -4.149,5.024 0,3.621 2.319,5.329 4.434,5.329 1.383,0 2.359,-0.61 2.888,-1.526 l 0.041,-0.02 z m -10.943,2.543 -2.461,-0.691 V 0 h -1.403 v -1.871 h 1.403 v -4.658 c 0,-1.302 0.244,-2.217 0.793,-2.786 0.468,-0.509 1.221,-0.814 2.157,-0.814 0.773,0 1.444,0.122 1.81,0.265 l -0.041,1.891 c -0.284,-0.082 -0.529,-0.101 -0.976,-0.101 -0.956,0 -1.282,0.609 -1.282,1.83 v 4.373 h 2.38 V 0 h -2.38 z m -8.359,-12.448 h 2.501 V 3.804 h -2.501 z m -9.497,5.776 c 0,0.203 -0.02,0.468 -0.061,0.672 -0.224,0.955 -1.017,1.749 -2.156,1.749 -1.607,0 -2.502,-1.424 -2.502,-3.255 0,-1.83 0.895,-3.152 2.482,-3.152 1.017,0 1.912,0.691 2.156,1.769 0.061,0.224 0.081,0.468 0.081,0.733 z m 2.502,-2.99 c 0,-1.017 0.04,-2.115 0.081,-2.786 h -2.217 l -0.122,1.566 h -0.04 c -0.59,-1.099 -1.79,-1.79 -3.214,-1.79 -2.38,0 -4.251,2.014 -4.251,5.065 -0.021,3.315 2.054,5.288 4.434,5.288 1.363,0 2.339,-0.549 2.786,-1.282 h 0.041 v 5.594 h 2.502 z m -15.316,7.343 c -1.647,0 -2.725,-0.936 -3.172,-1.708 h -0.061 L -367.437,0 h -2.177 c 0.041,-0.854 0.081,-1.81 0.081,-2.949 v -6.956 h 2.502 v 5.838 c 0,0.284 0.041,0.589 0.122,0.793 0.264,0.753 0.956,1.464 1.953,1.464 1.363,0 1.892,-1.078 1.892,-2.502 v -5.593 h 2.502 v 5.878 c 0,3.132 -1.791,4.251 -3.52,4.251 m -10.535,-5.288 c -1.769,0.02 -3.458,-0.346 -3.458,-1.851 0,-0.977 0.631,-1.424 1.424,-1.424 1.017,0 1.729,0.651 1.973,1.362 0.061,0.184 0.061,0.367 0.061,0.55 z m 2.441,-2.461 c 0,-0.896 0.041,-1.77 0.163,-2.38 h -2.258 l -0.183,1.098 h -0.061 c -0.59,-0.773 -1.628,-1.322 -2.929,-1.322 -1.993,0 -3.112,1.444 -3.112,2.949 0,2.482 2.217,3.763 5.878,3.742 v 0.164 c 0,0.65 -0.264,1.728 -2.013,1.728 -0.977,0 -1.994,-0.305 -2.665,-0.731 l -0.488,1.627 c 0.732,0.447 2.013,0.874 3.579,0.874 3.174,0 4.089,-2.014 4.089,-4.19 z m -16.17,10.068 -2.461,-0.691 V 0 h -1.403 v -1.871 h 1.403 v -4.658 c 0,-1.302 0.244,-2.217 0.793,-2.786 0.468,-0.509 1.221,-0.814 2.157,-0.814 0.773,0 1.443,0.122 1.81,0.265 l -0.041,1.891 c -0.285,-0.082 -0.529,-0.101 -0.976,-0.101 -0.957,0 -1.282,0.609 -1.282,1.83 v 4.373 h 2.38 V 0 h -2.38 z m -7.83,-7.607 c -1.769,0.02 -3.458,-0.346 -3.458,-1.851 0,-0.977 0.631,-1.424 1.424,-1.424 1.017,0 1.729,0.651 1.973,1.362 0.061,0.184 0.061,0.367 0.061,0.55 z m 2.441,-2.461 c 0,-0.896 0.041,-1.77 0.163,-2.38 h -2.258 l -0.183,1.098 h -0.061 c -0.59,-0.773 -1.628,-1.322 -2.929,-1.322 -1.994,0 -3.112,1.444 -3.112,2.949 0,2.482 2.217,3.763 5.878,3.742 v 0.164 c 0,0.65 -0.264,1.728 -2.013,1.728 -0.977,0 -1.994,-0.305 -2.665,-0.731 l -0.488,1.627 c 0.732,0.447 2.013,0.874 3.579,0.874 3.174,0 4.089,-2.014 4.089,-4.19 z m -12.285,2.624 c 0,1.749 -0.834,3.172 -2.501,3.172 -1.018,0 -1.953,-0.732 -2.217,-1.831 -0.041,-0.182 -0.082,-0.406 -0.082,-0.65 v -1.607 c 0,-0.204 0.021,-0.407 0.061,-0.59 0.265,-1.017 1.139,-1.749 2.217,-1.749 1.566,0 2.522,1.241 2.522,3.255 m 2.543,0.101 c 0,-3.559 -2.258,-5.329 -4.495,-5.329 -1.281,0 -2.421,0.488 -3.132,1.708 h -0.041 l -0.122,-1.484 h -2.136 c 0.041,0.671 0.081,1.769 0.081,2.786 V 4.536 h 2.502 v -5.898 h 0.041 c 0.61,0.956 1.688,1.586 3.173,1.586 2.42,0 4.149,-2.014 4.129,-5.024 m -14.929,-0.264 c -1.769,0.02 -3.458,-0.346 -3.458,-1.851 0,-0.977 0.631,-1.424 1.424,-1.424 1.017,0 1.729,0.651 1.973,1.362 0.061,0.184 0.061,0.367 0.061,0.55 z m 2.441,-2.461 c 0,-0.896 0.041,-1.77 0.163,-2.38 h -2.258 l -0.183,1.098 h -0.061 c -0.59,-0.773 -1.628,-1.322 -2.929,-1.322 -1.994,0 -3.112,1.444 -3.112,2.949 0,2.482 2.217,3.763 5.878,3.742 v 0.164 c 0,0.65 -0.264,1.728 -2.013,1.728 -0.977,0 -1.994,-0.305 -2.665,-0.731 l -0.488,1.627 c 0.732,0.447 2.013,0.874 3.579,0.874 3.174,0 4.089,-2.014 4.089,-4.19 z m -13.81,7.749 c -0.631,0 -1.221,-0.162 -1.729,-0.448 -0.509,-0.264 -0.936,-0.65 -1.241,-1.118 h -0.041 v 5.878 h -2.502 V -9.905 h 2.502 v 5.939 c 0,0.265 0.021,0.528 0.102,0.752 0.285,0.753 0.976,1.404 1.953,1.404 1.383,0 1.912,-1.098 1.912,-2.522 v -5.573 h 2.502 v 5.838 c 0,3.172 -1.77,4.291 -3.458,4.291 m -17.167,3.58 h 10.353 V 1.709 h -3.946 V -9.905 h -2.502 V 1.709 h -3.905 z"
       style="fill:#111844;fill-opacity:1;fill-rule:nonzero;stroke:none"
       transform="matrix(1.3333333,0,0,-1.3333333,703.71347,476.74867)"
       clip-path="url(#clipPath18)" />
  </g>
</svg>
