<?xml version="1.0" encoding="utf-8"?>
<!-- Generator: Adobe Illustrator 21.0.0, SVG Export Plug-In . SVG Version: 6.00 Build 0)  -->
<svg version="1.1" id="Layer_1" xmlns="http://www.w3.org/2000/svg" xmlns:xlink="http://www.w3.org/1999/xlink" x="0px" y="0px"
	 width="795px" height="243.2px" viewBox="0 0 795 243.2" style="enable-background:new 0 0 795 243.2;" xml:space="preserve">
<style type="text/css">
	.st0{fill:#144992;}
	.st1{fill:#F68B22;}
</style>
<g>
	<path class="st0" d="M83.4,11.9c18.3,2.2,42.7,13.1,57.8,29.9C121.4,17.5,94.7,1,68.9,0C27.1-1.5,3.8,38.6,16.8,89.4
		c1.8,7.1,4.2,14,7.2,20.7c4.1,10.3,9.9,20.7,17.3,30.7c4.9,6.6,10.3,12.9,16,18.7c-4.1-4.3-7.9-8.8-11.4-13.6
		c-34.1-46.1-29.8-97,11.4-111.8c18-6.5,41.2-3.6,62.8,3.6C99.8,23.4,75.1,14.5,47.6,23.8c-10.1,3.4-17.8,9.7-23.1,18
		C33.1,20.2,52.2,8.2,83.4,11.9"/>
	<path class="st1" d="M173.4,107.2H173c24.4,40.3,29.7,81.6,13.7,103.6c-21.8,30-78.6,13.5-126.9-36.9C12.6,124.7-9,61.4,10.4,30.6
		c-0.4,0.6-0.9,1.1-1.3,1.7c-23.3,32-0.3,101.7,51.3,155.5c51.7,53.8,112.4,71.5,135.7,39.5C214.5,202,204,153.2,173.4,107.2"/>
	<path class="st1" d="M162,87.3c6.1,7.5,8,16,4.2,19.2c-3.8,3.2-11.9-0.3-18-7.7c-6.1-7.4-8-16-4.2-19.1
		C147.7,76.5,155.8,79.9,162,87.3"/>
	<path class="st0" d="M235.2,89.6c0.8,0,1.8,0.3,2.8,0.9c0.9,0.6,1.7,1.2,2.5,1.7c2.1-3.2,3.2-4.9,3.2-5.2c0-1.1-0.5-2.1-1.5-2.9
		c-1-0.9-2.1-1.3-3.2-1.3c-3.3,0-6.3,1.4-9.2,4.1c-2.8,2.7-4.3,5.7-4.3,9c0,1.4,0.9,2.4,2.6,2.9c1.5,0.4,2.9,0.8,4.3,1.2
		c-1.5,0.8-2.8,1.8-4.1,3c-1.5,1.6-2.3,3-2.2,4.2v0.5c5.1-4.6,11.1-7,17.9-7.2c1.6-2.2,3.1-4.4,4.3-6.4c-9.7,0-15.4-0.9-17.1-2.8
		C233,90.2,234.3,89.6,235.2,89.6"/>
	<path class="st0" d="M290.2,89.5c0-2.4-0.5-4.8-1.5-7.3c-1-2.5-2.5-4.4-4.2-5.8l-4.3,7.7c0.9,0.8,1.8,2.1,2.9,4
		c1.1,1.9,1.6,3.4,1.6,4.4c0,0.2-0.1,0.2-0.1,0.2h-12.6h-2.5H268c-1.5,0-2.2-0.4-2.4-1.2c-0.6-2.7-1.2-7-1.6-13
		c-0.3-4.5-0.6-9-0.9-13.5c-0.5,0.4-1.4,1.6-2.9,3.3c-1.5,1.9-2.2,3.1-2.2,3.4l2.6,29.1h8.8h2.5h16
		C289.4,100.7,290.2,96.9,290.2,89.5"/>
	<path class="st0" d="M281.4,107.1c-1.8-1.6-2.9-2.4-3.2-2.4c-0.3,0-1.3,0.8-3,2.4c-1.7,1.7-2.5,2.6-2.5,2.9c0,0.3,0.8,1.1,2.5,2.4
		c1.6,1.3,2.7,2.1,3.1,2.1c3.9-2.2,5.8-3.7,5.8-4.5C284.1,109.7,283.2,108.8,281.4,107.1"/>
	<path class="st0" d="M335.2,89c-1.5,0.6-3.2,1.2-4.7,1.9H330c3-4,5.5-6.6,7.3-7.7c0.2,0.5,0.2,1,0.2,1.7
		C337.5,86.8,336.8,88.2,335.2,89 M337.5,103.3h-1.7c-1.2,0-2.5-0.5-3.7-1.3c-1.2-0.8-2-1.9-2.6-3.1c1.4,0,2.9,0.3,4.5,1
		c1.7,0.8,2.9,1.7,3.4,2.8V103.3z M397,70.7c-2.4-1.4-3.6-2.5-3.9-3.1c-0.2-0.6-0.3-1.5-0.4-2.5l-0.5-0.4c-1.6,1.8-3.3,4.7-5.2,8.7
		c0.7,1,1.5,1.8,2.3,2.3c0.4,1.1,1,3.7,1.6,7.8c0.6,4.1,1,6.9,1,8.3c0,0.2-0.1,0.5-0.2,0.8H386c-1.2,0-1.9,0-2-0.1
		c-0.7-0.1-1.1-0.5-1.2-1.2c-0.3-1.8-0.6-6.2-1-13.3c-0.3-5.6-1-10-1.8-13.3l-0.3-0.2l-5.7,8.1l3,20.1h-7.7h-1.4
		c-2.1,0-5.1-2.1-8.8-6.3c-2.6-3-5.2-6.1-7.9-9l16.8-3.4c0.9-2.8,1.6-5.5,2.2-8c-0.6-0.1-8,1.4-22.2,4.5c-1.4,3.6-2.4,7.3-3,11.1
		l11.6,11.1H345h-7c0.9-2,1.6-3.9,2.5-5.8c1-2.6,1.5-4.6,1.5-5.9v-4.2c-2.3,0-4.9,1.3-7.7,3.9c-2.5,2.2-4.4,4.4-5.8,6.9
		c-1,2.3-1.8,4-2.2,5.3h-2.5h-1.4c-3.1,0-5.4-1.1-7.1-3.2c-1.5-2.2-3-4.5-4.4-6.7c-0.4,0.5-1.2,1.7-2.4,3.7c-1.2,2-1.8,3.1-1.8,3.4
		c0,0.1,0.7,1.1,2.1,3c1.4,1.9,2.2,3.2,2.2,4c0,1.8-2.1,4-6.2,6.7c-4,2.8-7.2,4.2-9.3,4.2c-1.3,0-3-0.5-4.7-1.6
		c-1.8-1-2.6-1.5-2.4-1.5c-0.3,0-0.4,0-0.4,0.2v0.9c1.3,1.5,3.8,3.1,7.2,4.9c3.5,1.7,6.2,2.5,8,2.5c2.7,0,5.2-1.6,7.4-4.8
		c1.6-2.8,3.1-5.5,4.6-8.2l0.4-0.4c1.2,0.6,2.2,0.9,2.9,0.9h2.1h3.3h0.1c0.2,0,0.8,0.9,1.7,2.7c1.2,2.3,2.3,4,3.2,5.1
		c1.5,1.8,3.1,2.7,4.6,2.7c4,0,7.1-3.5,9.4-10.5h14.1l3.1-5l5.4,5h6.1h3.2l2.6-4.9c0.1,0.9,0.2,1.9,0.2,2.8c0.2,1.4,0.6,2.1,1.2,2.1
		h5.3h2.3h7.6c0.7-0.4,1.1-0.6,1.2-0.8c0.3-0.4,0.8-1.9,1.3-4.4c0.6-2.6,0.8-4.1,0.7-4.7L396,80.7l5.8-7.5
		C400.4,72.6,398.8,71.8,397,70.7"/>
	<path class="st0" d="M426.6,69.1c3.4,2.1,5.4,3.1,6.1,3.1c0.3,0,1-0.7,2.2-2.2c1.1-1.3,1.8-2.2,2.2-2.8l-6.2-3.3
		c-2.7,2-4,3.1-3.9,3.1c-0.9,0-2.7-1-5.6-3.1c-2.5,2.7-3.9,4.3-4.4,4.9c2.6,1.7,4.7,2.7,6.2,3.2C424.9,70.5,426.1,69.5,426.6,69.1"
		/>
	<path class="st0" d="M459.9,107.4c-0.9,1-1.5,1.5-1.9,1.5c-0.5,0-2.3-1-5.3-3.1c-1.5,1.7-2.8,3.4-4,5.1c1.2,1.1,3.1,2.3,5.7,3.6
		c1.5-1.5,2.6-2.7,3.3-3.3l5.6,3.3c1.3-1.1,2.7-2.7,4.2-5.2l-5.8-3.6C461.5,105.9,460.9,106.4,459.9,107.4"/>
	<path class="st0" d="M429.4,88.4c1.1-0.9,2-1.6,2.8-1.9c1.6-1.5,2.7-2.7,3.3-3.7l1.4,6.6L429.4,88.4z M461.1,84.2
		c2.1,2.9,3.6,5.7,4.6,8.4h-15.3h-2.6h-1.2c-2,0-3.1-0.6-3.5-1.8c-0.7-2.1-1.5-5.6-2.3-10.5c-0.9-5.7-1.6-9.4-2.1-11.1l-0.4-0.3
		l-4.4,7.6c0.2,0.7,0.4,1.5,0.7,2.3c-2.7,1.5-5.4,3-8.1,4.6c-1.9,1.2-3.2,2.6-4.2,4.3c-0.9,1.6-1.9,4.6-3,9l13.4,2.4
		c0.7,0.1,1.5-0.7,2.5-2.4c1.2-2.1,1.8-3.3,2.2-3.6c0.5,1.6,1,3.2,1.5,4.8c0.9,1.9,2,2.8,3.7,2.8h5.1h2.6h19
		c1.1-5.7,1.6-9.5,1.6-11.5c0-3.5-1.9-7.6-5.7-12.2L461.1,84.2z"/>
	<path class="st0" d="M484.2,75.2l-2.6,8.5c1.5,0.2,3.2,1.4,5.5,3.4c2.2,2.1,3.3,3.8,3.3,5.2c0,0.1,0,0.2-0.1,0.3h-14.5l-0.7,8.1
		H493c1.6,0,2.5-2.8,2.5-8.5C495.4,84.2,491.7,78.5,484.2,75.2"/>
	<path class="st0" d="M514.3,92.6c-2.2,0-3.6-0.8-4.5-2.2c0.1-0.1,0.1-0.2,0-0.3c-0.1-0.4,0.2-0.9,0.9-1.5c0.7-0.6,1.2-1,1.5-1
		c0.8,0,1.5,0.6,2.2,1.8c0.1,0.1,0.5,1.1,1.4,2.8C515.3,92.4,514.8,92.6,514.3,92.6 M598.8,70.7c-2.4-1.4-3.7-2.5-3.9-3.1
		c-0.3-0.6-0.4-1.5-0.4-2.5l-0.5-0.4c-1.6,1.8-3.3,4.6-5.2,8.7c0.8,1,1.5,1.8,2.3,2.3c0.4,1.1,1,3.7,1.6,7.8c0.7,4.1,1,6.9,1,8.3
		c0,0.2-0.1,0.5-0.2,0.8h-5.2h-1.9c-2.3,0-3.5-1.6-3.5-4.6c0.1-0.2,0.1-0.6,0.1-1.1c0-0.5-0.1-0.9-0.1-1.1c0-1.3-0.1-2.3-0.3-3.2
		c-0.6,0.4-1.5,1.4-2.9,3c-1.4,1.7-2,2.8-2,3.4c0,0.3,0.1,0.7,0.2,1.3c0.1,0.6,0.2,1,0.2,1.3c0,0.3-0.2,0.6-0.4,0.9
		c-3.5-0.2-5.3-0.2-5.6,0c0.8-3.5,1.2-6.7,1.2-9.8c0-0.2-0.1-0.6-0.2-0.8c-0.8,0.7-1.9,1.9-3.2,3.7c-1.5,2-2.2,3.4-2.2,4.1
		c0,1.4-0.3,2.3-0.7,2.7h-2.8h-3.1h-0.7c1.5-4.3,2.3-7.1,2.3-8.5l-0.2-1.9c-0.7,0.3-1.8,1.3-3.2,2.9c-1.5,1.7-2.2,2.8-2.2,3.5
		c0,1.4-0.3,2.7-0.9,3.9h-6.1h-2.3h-2.5c0.6-0.9,1.1-1.8,1.5-2.6c0.7-1.1,1-2,1-2.7c0-2-1.1-3.8-3.3-5.3c-2-1.4-4.1-2.1-6.2-2.1
		c-3.4,0-6,0.8-7.6,2.6c-1,1-2.2,3.3-3.9,7.1c1.7-0.2,2.5-0.3,2.7-0.3c2.3,0,4.3,1.1,5.8,3.2h-9.3H523h-1.3
		c-1.3-8.5-3.6-12.8-7-12.8c-2.2,0-4.3,2.1-6.5,6.2c-1.9,3.7-2.9,6.7-2.9,9c0,2.2,1.3,3.7,3.7,4.5c0.3,0.1,2.5,0.6,6.4,1.3
		c-1.8,1.7-4,3.3-6.5,4.7c-2.9,1.5-5.5,2.3-7.6,2.3c-0.6,0-1.7-0.2-3.2-0.6c-1.5-0.4-2.5-0.6-3.3-0.6c-0.2,0-0.4,0.1-0.6,0.3v0.7
		c1.2,1.5,3.3,2.7,6.1,3.8c2.7,1,5.1,1.6,7.2,1.6c2.5,0,5.2-1.5,7.9-4.4c2.1-2.3,3.8-4.9,5.1-7.8h2.5h3.1h10.1
		c1.1-1.6,1.9-2.9,2.4-3.7c1,1.6,1.7,2.9,2.2,3.7h7h2.3h4.2c0.4,0,0.9-0.3,1.5-0.9c0.6-0.6,0.9-1,1.1-1.2c0.4,0.7,0.7,1.5,0.7,2.1
		h3.4h3.1h2.3c0,0,0.4-0.2,0.8-0.6c0.4-0.5,0.7-0.7,0.9-0.7c0.3,0,0.8,0.5,1.4,1.3h10c0.6-0.9,1.1-1.6,1.5-2.1
		c0.4,0.9,0.8,1.6,1,2.1h3.6h2.6h7.2c0.7-0.4,1.1-0.6,1.2-0.7c0.3-0.4,0.8-1.9,1.3-4.4c0.5-2.6,0.8-4.1,0.7-4.7l-0.8-10.1l5.8-7.5
		C602.2,72.6,600.7,71.8,598.8,70.7"/>
	<path class="st0" d="M609.7,77.4l3.3,23.9c2.9-3.4,4.3-7.6,4.3-12.6c0-4.4-0.7-11.3-2.2-21C612.5,71.4,610.7,74.7,609.7,77.4"/>
	<path class="st0" d="M645.5,69.1c3.4,2.1,5.4,3.1,6.1,3.1c0.3,0,1.1-0.7,2.3-2.2c1.1-1.3,1.8-2.2,2.1-2.8l-6.2-3.3
		c-2.7,2-4,3.1-3.9,3.1c-0.8,0-2.7-1-5.6-3.1c-2.5,2.7-4,4.3-4.3,4.9c2.6,1.7,4.7,2.7,6.1,3.2C643.9,70.5,645,69.5,645.5,69.1"/>
	<path class="st0" d="M648.3,88.4c1.2-0.9,2.1-1.6,2.8-1.9c1.6-1.5,2.7-2.7,3.3-3.7l1.4,6.6L648.3,88.4z M684.7,84.1
		c-2.9-2.3-5.9-4.6-8.7-6.9c7-2.2,12.3-3.8,15.8-4.8c0.9-3,1.6-5.7,2.1-8.2l-23.4,6.9c-0.4,1.7-0.8,3.3-1.2,4.9
		c-0.6,2-0.8,3.6-0.8,4.8c0,0.4,0.9,1.6,2.7,3.4c1.8,1.9,3,2.8,3.4,2.8c0.6,0,1-0.3,1.2-0.9l8.3,6.4h-14.8h-3.8
		c-1.9,0-3-0.6-3.5-1.8c-0.7-2.1-1.4-5.6-2.3-10.5c-0.9-5.7-1.6-9.5-2-11.1l-0.4-0.3l-4.5,7.6c0.1,0.7,0.4,1.5,0.7,2.3
		c-2.7,1.6-5.4,3-8.1,4.6c-1.8,1.2-3.2,2.6-4.1,4.3c-0.9,1.6-1.9,4.6-3,9l13.5,2.4c0.6,0.1,1.5-0.7,2.5-2.5c1.1-2.1,1.8-3.3,2.2-3.5
		c0.5,1.6,1,3.2,1.5,4.8c0.8,1.9,2.1,2.8,3.7,2.8h3.8h3.8h19.3c1.6-5.1,2.4-8,2.4-8.8C691.2,90.5,689,87.9,684.7,84.1"/>
	<path class="st0" d="M744.5,75.5l6.3,3.1c2.4-1.7,4-3.4,4.5-4.9l-6.4-3.6c-0.7,0.7-1.3,1.2-2,1.9c-1.2,1-1.8,1.5-1.9,1.5
		c-0.8,0-2.7-1-5.6-3.2c-2.3,2.1-3.9,3.8-4.7,4.9c3.7,2.2,5.8,3.3,6.3,3.3C740.9,78.5,742.1,77.5,744.5,75.5"/>
	<path class="st0" d="M742.1,69.6c1.3,1.1,2.1,1.7,2.3,1.7c0.4,0,1.3-0.5,2.5-1.6c1-0.9,1.7-1.6,2-2.1c-2.6-2.6-4.1-3.9-4.5-4
		c-2.9,2.2-4.4,3.5-4.4,4.1C740.1,67.8,740.7,68.5,742.1,69.6"/>
	<path class="st0" d="M774.8,70.7c-2.4-1.4-3.7-2.5-3.9-3.1c-0.3-0.6-0.4-1.5-0.4-2.5l-0.4-0.4c-1.6,1.8-3.4,4.7-5.2,8.7
		c0.7,1,1.5,1.8,2.2,2.3c0.5,1.1,1,3.7,1.6,7.8c0.6,4.1,1,6.9,1,8.3c0,0.2-0.1,0.5-0.3,0.7h-5.1h-2c-2.3,0-3.4-1.6-3.4-4.6
		c0-0.2,0.1-0.6,0.1-1.1c0-0.5,0-0.9-0.1-1.1c0-1.3-0.1-2.3-0.3-3.1c-0.6,0.4-1.6,1.4-2.9,3c-1.3,1.7-2,2.8-2,3.4
		c0,0.3,0.1,0.7,0.2,1.3c0.2,0.6,0.2,1,0.2,1.3c0,0.3-0.1,0.6-0.4,0.9c-3.4-0.2-5.3-0.2-5.6,0c0.8-3.4,1.2-6.7,1.2-9.8
		c0-0.2-0.1-0.5-0.2-0.8c-0.8,0.7-1.8,1.9-3.2,3.7c-1.5,2.1-2.2,3.4-2.2,4.1c0,1.3-0.3,2.3-0.7,2.7h-2.9h-3.1h-0.6
		c1.5-4.3,2.2-7.1,2.2-8.5l-0.2-1.9c-0.7,0.3-1.8,1.3-3.2,2.9c-1.4,1.7-2.1,2.8-2.1,3.5c0,1.4-0.3,2.7-1,3.9h-5.9H725
		c-3.1,0-5.4-1.1-7.1-3.2c-1.4-2.2-2.9-4.5-4.4-6.7c-0.4,0.5-1.2,1.7-2.4,3.7c-1.2,2-1.7,3.1-1.7,3.4c0,0.1,0.7,1.1,2.1,3
		c1.4,1.9,2.2,3.2,2.2,4c0,1.8-2.1,4-6.2,6.7c-4.1,2.8-7.2,4.2-9.3,4.2c-1.4,0-3-0.5-4.7-1.6c-1.8-1-2.6-1.5-2.5-1.5
		c-0.3,0-0.4,0-0.4,0.2v0.9c1.3,1.5,3.7,3.1,7.2,4.9c3.5,1.7,6.1,2.6,7.9,2.6c2.8,0,5.3-1.6,7.6-4.8c1.5-2.8,3.1-5.5,4.6-8.1
		l0.4-0.4c1.3,0.6,2.2,0.9,2.9,0.9h2.9h2.5h4c0.4,0,0.9-0.3,1.5-0.9c0.5-0.6,0.9-1,1.1-1.2c0.4,0.8,0.7,1.5,0.7,2.1h3.5h3.1h2.2
		c0.2,0,0.4-0.2,0.9-0.6c0.4-0.5,0.7-0.7,0.8-0.7c0.4,0,0.8,0.5,1.5,1.3h9.9c0.6-0.9,1.2-1.6,1.5-2.1c0.4,0.9,0.8,1.6,1,2.1h3.5h2.7
		h7.2c0.7-0.4,1.1-0.6,1.2-0.7c0.3-0.4,0.8-1.9,1.3-4.4c0.6-2.6,0.8-4.1,0.7-4.7l-0.9-10.1l5.8-7.4
		C778.3,72.6,776.7,71.8,774.8,70.7"/>
	<path class="st0" d="M791.2,67.7c-2.7,3.8-4.6,7-5.5,9.8l3.4,23.9c2.9-3.4,4.3-7.6,4.3-12.6C793.4,84.3,792.7,77.3,791.2,67.7"/>
</g>
<rect x="336.6" y="142.2" class="st0" width="6.2" height="5.8"/>
<rect x="488.3" y="142.2" class="st0" width="6.3" height="5.8"/>
<rect x="526.2" y="142.2" class="st0" width="6.2" height="5.8"/>
<g>
	<path class="st0" d="M245.4,156.9c-1.5-0.8-3.9-1.6-7.1-2.3c-3.2-0.8-5.2-1.5-6-2.2c-0.6-0.6-1-1.2-1-2c0-0.8,0.3-1.5,1-2
		c1.1-0.8,2.6-1.2,4.5-1.2c1.8,0,3.3,0.4,4.1,1.1c0.9,0.7,1.5,1.9,1.8,3.6l6.6-0.2c-0.1-3-1.2-5.4-3.3-7.2c-2.1-1.8-5.1-2.7-9.2-2.7
		c-2.5,0-4.6,0.4-6.4,1.2c-1.7,0.8-3.1,1.9-4,3.3c-1,1.4-1.5,3-1.5,4.7c0,2.6,1,4.7,3,6.5c1.4,1.3,3.9,2.3,7.4,3.2
		c2.8,0.6,4.5,1.1,5.2,1.4c1.1,0.4,1.9,0.9,2.4,1.4c0.4,0.5,0.6,1.2,0.6,1.9c0,1.2-0.5,2.2-1.6,3.1c-1.1,0.9-2.7,1.3-4.8,1.3
		c-2,0-3.5-0.5-4.8-1.5c-1.1-1-1.9-2.6-2.3-4.8l-6.4,0.6c0.4,3.7,1.7,6.4,3.9,8.4c2.2,1.9,5.4,2.9,9.5,2.9c2.8,0,5.2-0.4,7-1.2
		c1.9-0.8,3.4-2,4.5-3.6c1-1.6,1.5-3.4,1.5-5.2c0-2-0.4-3.8-1.3-5.2C248.1,158.8,246.9,157.8,245.4,156.9"/>
	<path class="st0" d="M268.8,164.8c0,1.5-0.1,2.5-0.3,3.1c-0.2,0.8-0.7,1.5-1.5,2.1c-1,0.7-2.1,1.1-3.2,1.1c-1,0-1.9-0.3-2.5-1
		c-0.6-0.6-1-1.4-1-2.2c0-0.9,0.5-1.6,1.2-2.2c0.5-0.4,1.6-0.7,3.4-1.1c1.7-0.3,2.9-0.7,3.8-1V164.8z M274.9,167.1l0.1-7.3
		c0-2.7-0.3-4.6-0.8-5.6c-0.6-1-1.5-1.9-2.9-2.6c-1.3-0.6-3.4-0.9-6.2-0.9c-3.1,0-5.4,0.5-6.9,1.6c-1.5,1.1-2.6,2.8-3.3,5.1l5.6,1
		c0.4-1.1,0.9-1.9,1.6-2.3c0.6-0.4,1.5-0.6,2.6-0.6c1.6,0,2.7,0.3,3.4,0.8c0.6,0.5,0.9,1.4,0.9,2.6v0.6c-1.1,0.5-3.1,1-6.1,1.6
		c-2.1,0.4-3.8,0.9-4.9,1.4c-1.1,0.6-2,1.4-2.7,2.4c-0.7,1-1,2.3-1,3.6c0,2,0.7,3.7,2.1,5c1.4,1.3,3.3,2,5.7,2
		c1.4,0,2.6-0.3,3.9-0.8c1.2-0.5,2.3-1.3,3.4-2.3c0,0.1,0.1,0.3,0.2,0.7c0.2,0.8,0.4,1.4,0.6,1.8h6.2c-0.5-1.1-0.9-2.2-1.1-3.2
		C275,170.7,274.9,169.2,274.9,167.1"/>
	<path class="st0" d="M296.3,161.3c0,3.4-0.1,5.5-0.5,6.4c-0.3,0.9-0.9,1.6-1.7,2.2c-0.9,0.6-1.8,0.9-2.9,0.9
		c-0.9,0-1.7-0.2-2.4-0.7c-0.6-0.4-1-1-1.3-1.7c-0.2-0.8-0.3-2.9-0.3-6.2v-10.9H281v15c0,2.2,0.2,4,0.8,5.2c0.6,1.2,1.4,2.3,2.7,3
		c1.3,0.7,2.7,1.1,4.3,1.1c1.5,0,3.1-0.4,4.5-1.1c1.4-0.8,2.5-1.8,3.4-3v3.5h5.8v-23.7h-6.2V161.3z"/>
	<path class="st0" d="M322.8,168.7c-1,1.2-2.3,1.8-3.7,1.8c-1.8,0-3.2-0.8-4.2-2.5c-0.7-1.1-1.1-3-1.1-5.5c0-2.4,0.5-4.2,1.5-5.3
		c1-1.2,2.3-1.8,3.7-1.8c1.5,0,2.7,0.6,3.7,1.8c1,1.2,1.5,3.2,1.5,5.9C324.3,165.7,323.8,167.5,322.8,168.7 M324.3,154.1
		c-1.9-2.2-4.2-3.3-6.8-3.3c-2.9,0-5.3,1.1-7.1,3.1c-1.9,2.1-2.8,5.2-2.8,9.2c0,3.9,0.9,7,2.9,9.2c1.9,2.2,4.2,3.3,6.9,3.3
		c1.3,0,2.7-0.4,4-1.1c1.3-0.7,2.4-1.7,3.4-3v3.5h5.8v-32.6h-6.2V154.1z"/>
</g>
<rect x="336.6" y="151.2" class="st0" width="6.2" height="23.7"/>
<polygon class="st0" points="368.5,160.5 384.9,160.5 384.9,155 368.5,155 368.5,147.8 386,147.8 386,142.2 362,142.2 362,174.9 
	386.7,174.9 386.7,169.3 368.5,169.3 "/>
<rect x="392.2" y="142.2" class="st0" width="6.2" height="32.6"/>
<g>
	<path class="st0" d="M409.6,161.1c0-1.7,0.4-3.1,1.3-4.1c0.9-1.1,2-1.5,3.4-1.5c1.3,0,2.4,0.4,3.3,1.4c0.9,0.9,1.4,2.3,1.4,4.2
		H409.6z M422.2,154.3c-2-2.3-4.8-3.5-8.3-3.5c-3.1,0-5.7,1.1-7.8,3.4c-2,2.2-3,5.2-3,9.2c0,3.3,0.8,6,2.3,8.1c2,2.7,5,4,9.1,4
		c2.7,0,4.8-0.6,6.5-1.8c1.7-1.2,3-2.9,3.8-5.2l-6.2-1c-0.3,1.2-0.9,2.1-1.5,2.6c-0.6,0.6-1.5,0.8-2.5,0.8c-1.4,0-2.6-0.5-3.6-1.5
		c-1-1-1.5-2.5-1.5-4.3H425C425.1,160.1,424.2,156.6,422.2,154.3"/>
	<path class="st0" d="M443.2,169.4c-0.7,0.7-1.7,1.1-2.9,1.1c-1.6,0-2.8-0.6-3.7-1.7c-0.9-1.2-1.4-3.2-1.4-6c0-2.5,0.5-4.3,1.4-5.4
		c0.9-1.1,2.1-1.6,3.7-1.6c1.1,0,2.1,0.3,2.8,0.9c0.7,0.6,1.2,1.5,1.4,2.7l6.2-1.1c-0.8-2.5-1.9-4.4-3.7-5.6
		c-1.7-1.2-3.9-1.8-6.9-1.8c-3.5,0-6.3,1.1-8.3,3.3c-2.1,2.2-3.1,5.2-3.1,9.1c0,3.9,1,6.9,3.1,9.1c2,2.2,4.8,3.3,8.2,3.3
		c3,0,5.4-0.7,7.2-2.2c1.8-1.4,3.1-3.6,3.7-6.4l-6.2-1C444.5,167.5,444,168.7,443.2,169.4"/>
	<path class="st0" d="M463.8,170.3c-0.4,0-0.8-0.1-1.1-0.3c-0.3-0.2-0.4-0.5-0.5-0.8c-0.1-0.4-0.1-1.5-0.1-3.4v-9.6h4.3v-4.9h-4.3
		v-8.3l-6.3,3.6v4.7H453v4.9h2.8v10.4c0,2.2,0.1,3.7,0.2,4.4c0.2,1,0.5,1.8,0.9,2.5c0.4,0.6,1.1,1.1,1.9,1.5c0.9,0.4,1.9,0.6,3,0.6
		c1.9,0,3.5-0.3,4.9-1l-0.4-4.9C465.3,170.1,464.4,170.3,463.8,170.3"/>
	<path class="st0" d="M478.8,151.5c-0.8,0.5-1.6,1.5-2.6,3.1v-3.4h-5.8v23.6h6.2v-7.3c0-4,0.2-6.6,0.5-7.9c0.3-1.2,0.8-2.1,1.4-2.6
		c0.6-0.5,1.4-0.7,2.2-0.7c0.9,0,1.8,0.3,2.9,1l1.9-5.5c-1.4-0.8-2.6-1.1-4.1-1.1C480.5,150.8,479.6,151,478.8,151.5"/>
</g>
<rect x="488.3" y="151.2" class="st0" width="6.3" height="23.7"/>
<g>
	<path class="st0" d="M514,169.4c-0.7,0.7-1.7,1.1-2.9,1.1c-1.6,0-2.8-0.6-3.8-1.7c-0.9-1.2-1.4-3.2-1.4-6c0-2.5,0.4-4.3,1.4-5.4
		c0.9-1.1,2.2-1.6,3.7-1.6c1.1,0,2.1,0.3,2.8,0.9c0.8,0.6,1.2,1.5,1.4,2.7l6.2-1.1c-0.7-2.5-2-4.4-3.6-5.6c-1.7-1.2-4-1.8-6.9-1.8
		c-3.5,0-6.3,1.1-8.3,3.3c-2,2.2-3.1,5.2-3.1,9.1c0,3.9,1.1,6.9,3.1,9.1c2.1,2.2,4.8,3.3,8.3,3.3c3,0,5.4-0.7,7.2-2.2
		c1.8-1.4,3-3.6,3.7-6.4l-6.2-1C515.3,167.5,514.8,168.7,514,169.4"/>
</g>
<rect x="526.2" y="151.2" class="st0" width="6.2" height="23.7"/>
<path class="st0" d="M547.3,170.3c-0.4,0-0.8-0.1-1.1-0.3c-0.3-0.2-0.5-0.5-0.6-0.8c-0.1-0.4-0.1-1.5-0.1-3.4v-9.6h4.3v-4.9h-4.3
	v-8.3l-6.3,3.6v4.7h-2.9v4.9h2.9v10.4c0,2.2,0.1,3.7,0.2,4.4c0.2,1,0.4,1.8,0.8,2.5c0.5,0.6,1.1,1.1,2,1.5c0.9,0.4,1.9,0.6,3,0.6
	c1.8,0,3.5-0.3,4.9-1l-0.4-4.9C548.7,170.1,547.8,170.3,547.3,170.3"/>
<path class="st0" d="M563.2,168l-5.6-16.8H551l8.9,23.7c-0.4,1.3-0.9,2.4-1.6,3.3c-0.6,0.8-1.7,1.3-3.1,1.3c-0.8,0-1.7-0.1-2.7-0.3
	l0.6,4.9c1.1,0.2,2.3,0.4,3.5,0.4s2.2-0.1,3.2-0.4c1-0.3,1.7-0.6,2.4-1.1c0.6-0.5,1.2-1.1,1.7-1.8c0.5-0.7,1-1.7,1.6-3.1l1.6-4.2
	l8.3-22.7h-6.5L563.2,168z"/>
<path class="st0" d="M610.1,168.1c-1.3,1.1-2.8,1.7-4.5,1.7c-2.3,0-4.3-0.9-5.8-2.6c-1.4-1.7-2.2-4.7-2.2-8.8c0-3.9,0.8-6.7,2.2-8.5
	c1.5-1.7,3.5-2.6,5.9-2.6c1.7,0,3.2,0.5,4.5,1.5c1.3,1,2,2.3,2.4,4l6.5-1.6c-0.7-2.6-1.9-4.6-3.3-5.9c-2.5-2.4-5.8-3.6-9.8-3.6
	c-4.6,0-8.2,1.5-11.1,4.5c-2.8,3-4.2,7.2-4.2,12.6c0,5.1,1.4,9.2,4.2,12.1c2.8,2.9,6.3,4.4,10.7,4.4c3.5,0,6.4-0.9,8.7-2.6
	c2.3-1.8,3.9-4.4,4.9-8l-6.4-2C612.3,165.3,611.4,167,610.1,168.1"/>
<path class="st0" d="M639.6,168.5c-1.1,1.3-2.5,1.9-4.1,1.9c-1.6,0-3-0.6-4.1-1.9c-1.1-1.2-1.7-3-1.7-5.4c0-2.3,0.5-4.2,1.7-5.4
	c1.1-1.2,2.5-1.8,4.1-1.8c1.6,0,3,0.6,4.1,1.8c1.1,1.2,1.7,3.1,1.7,5.4C641.2,165.5,640.7,167.3,639.6,168.5 M635.4,150.8
	c-2.3,0-4.4,0.5-6.3,1.5c-1.9,1-3.3,2.5-4.3,4.4c-1,1.9-1.6,4-1.6,6.1c0,2.7,0.5,5,1.6,6.9c1,1.9,2.5,3.3,4.5,4.3
	c2,1,4.1,1.5,6.2,1.5c3.5,0,6.4-1.2,8.7-3.6c2.3-2.4,3.5-5.3,3.5-8.9c0-3.5-1.1-6.5-3.4-8.8C642,151.9,639,150.8,635.4,150.8"/>
<path class="st0" d="M683.5,151.8c-1.2-0.7-2.7-1-4.4-1c-1.3,0-2.6,0.3-3.8,1c-1.2,0.6-2.3,1.5-3.4,2.8c-0.7-1.2-1.6-2.2-2.7-2.8
	c-1.1-0.6-2.4-1-3.9-1c-2.8,0-5.3,1.2-7.4,3.7v-3.2h-5.8v23.6h6.2v-11.5c0-2.3,0.1-3.9,0.5-4.9c0.4-1,0.9-1.7,1.7-2.2
	c0.8-0.5,1.7-0.8,2.6-0.8c0.8,0,1.4,0.1,1.9,0.5c0.4,0.3,0.8,0.8,1,1.5c0.3,0.6,0.3,2.1,0.3,4.4v12.9h6.3v-11.4
	c0-2.2,0.2-3.9,0.5-4.9c0.3-1,0.8-1.7,1.6-2.3c0.8-0.5,1.6-0.8,2.5-0.8c1.2,0,2.1,0.4,2.7,1.3c0.4,0.7,0.6,2.2,0.6,4.5v13.5h6.3
	v-15.1c0-2.3-0.2-3.9-0.7-4.9C685.6,153.6,684.7,152.5,683.5,151.8"/>
<path class="st0" d="M708.1,168.8c-1,1.2-2.2,1.7-3.6,1.7c-1.6,0-2.8-0.6-3.9-1.9c-1.1-1.3-1.6-3.3-1.6-5.9c0-2.3,0.5-4.1,1.5-5.3
	c1-1.2,2.3-1.8,3.8-1.8c1.4,0,2.7,0.6,3.7,1.8c1,1.2,1.5,3,1.5,5.5C709.5,165.7,709,167.6,708.1,168.8 M706,150.8
	c-1.6,0-3,0.4-4.3,1.1c-1.3,0.7-2.3,1.6-3.1,2.8v-3.4h-5.8v32.6h6.2V172c1.2,1.3,2.3,2.1,3.4,2.6c1,0.5,2.2,0.8,3.6,0.8
	c2.7,0,5.1-1.1,7-3.3c1.9-2.2,2.9-5.3,2.9-9.2c0-3.9-1-6.9-2.9-9C711.1,151.9,708.8,150.8,706,150.8"/>
<path class="st0" d="M733.8,164.8c0,1.5-0.1,2.5-0.3,3.1c-0.2,0.8-0.7,1.5-1.4,2.1c-1.1,0.7-2.1,1.1-3.2,1.1c-1,0-1.8-0.3-2.5-1
	c-0.7-0.6-1-1.4-1-2.2c0-0.9,0.4-1.6,1.2-2.2c0.5-0.4,1.7-0.7,3.4-1.1c1.7-0.3,3-0.7,3.8-1V164.8z M739.9,167.1l0.1-7.3
	c0-2.7-0.3-4.6-0.8-5.6c-0.6-1-1.5-1.9-2.9-2.6c-1.4-0.6-3.4-0.9-6.3-0.9c-3,0-5.4,0.5-6.9,1.6c-1.6,1.1-2.6,2.8-3.3,5.1l5.6,1
	c0.4-1.1,0.9-1.9,1.5-2.3c0.6-0.4,1.5-0.6,2.6-0.6c1.7,0,2.8,0.3,3.4,0.8c0.6,0.5,0.9,1.4,0.9,2.6v0.6c-1.1,0.5-3.2,1-6.1,1.6
	c-2.2,0.4-3.7,0.9-4.9,1.4c-1.1,0.6-2,1.4-2.6,2.4c-0.6,1-1,2.3-1,3.6c0,2,0.7,3.7,2.1,5c1.4,1.3,3.4,2,5.7,2c1.4,0,2.6-0.3,3.9-0.8
	c1.2-0.5,2.3-1.3,3.4-2.3c0.1,0.1,0.1,0.3,0.2,0.7c0.2,0.8,0.4,1.4,0.6,1.8h6.2c-0.6-1.1-0.9-2.2-1.1-3.2
	C739.9,170.7,739.9,169.2,739.9,167.1"/>
<path class="st0" d="M765.9,153.4c-0.6-0.8-1.4-1.3-2.6-1.9c-1.2-0.5-2.4-0.7-3.8-0.7c-3.1,0-5.7,1.3-7.7,3.9v-3.5H746v23.7h6.3
	v-10.7c0-2.6,0.1-4.4,0.5-5.4c0.3-0.9,0.9-1.8,1.7-2.4c0.8-0.6,1.8-0.9,2.9-0.9c0.8,0,1.5,0.2,2.1,0.6c0.6,0.4,1,1,1.3,1.8
	c0.2,0.7,0.4,2.4,0.4,5v12h6.2v-14.6c0-1.8-0.2-3.2-0.3-4.2C766.9,155,766.5,154.2,765.9,153.4"/>
<path class="st0" d="M788.5,151.2l-5.5,16.8l-5.7-16.8h-6.6l8.9,23.7c-0.4,1.3-0.9,2.4-1.6,3.3c-0.7,0.8-1.8,1.3-3.2,1.3
	c-0.8,0-1.6-0.1-2.6-0.3l0.5,4.9c1.1,0.2,2.3,0.3,3.5,0.3c1.2,0,2.2-0.1,3.2-0.3c1-0.3,1.8-0.7,2.4-1.1c0.6-0.5,1.2-1.1,1.7-1.8
	c0.5-0.7,1-1.7,1.6-3.1l1.5-4.2l8.3-22.7H788.5z"/>
</svg>
