<svg xmlns="http://www.w3.org/2000/svg" width="45" height="45" viewBox="0 0 45 45">
  <g id="call" transform="translate(-1029 -3470)">
    <g id="call-calling_bulk" data-name="call-calling/bulk" transform="translate(1029 3470)">
      <g id="vuesax_bulk_call-calling" data-name="vuesax/bulk/call-calling">
        <g id="call-calling">
          <path id="Vector" d="M8.116,9.564a1.431,1.431,0,0,1-1.43-1.43A6.464,6.464,0,0,0,4.847,4.773,5.183,5.183,0,0,0,1.43,2.86,1.43,1.43,0,1,1,1.43,0,7.893,7.893,0,0,1,6.946,2.8,8.763,8.763,0,0,1,9.564,8.116,1.45,1.45,0,0,1,8.116,9.564Z" transform="translate(24.908 10.527)"/>
          <path id="Vector-2" data-name="Vector" d="M14.8,16.25a1.431,1.431,0,0,1-1.43-1.43A11.956,11.956,0,0,0,1.43,2.879,1.439,1.439,0,0,1,1.411,0a14.837,14.837,0,0,1,14.82,14.82A1.443,1.443,0,0,1,14.8,16.25Z" transform="translate(25.054 3.714)"/>
          <path id="Vector-3" data-name="Vector" d="M18.181,22.676l-6.073,6.073q-1-.891-1.95-1.839a52.768,52.768,0,0,1-5.181-6.073A33.109,33.109,0,0,1,1.337,14.5,15.642,15.642,0,0,1,0,8.431,9.607,9.607,0,0,1,.669,4.847,8.548,8.548,0,0,1,2.8,1.746,5.441,5.441,0,0,1,6.667,0a3.49,3.49,0,0,1,1.5.334,3.027,3.027,0,0,1,1.244,1.04l4.309,6.073a6.356,6.356,0,0,1,.743,1.3,2.935,2.935,0,0,1,.26,1.133,2.521,2.521,0,0,1-.39,1.319,6.317,6.317,0,0,1-1.04,1.319l-1.411,1.467a.994.994,0,0,0-.3.743,1.686,1.686,0,0,0,.056.427c.056.149.111.26.149.371A15.411,15.411,0,0,0,13.52,17.9c.836.966,1.727,1.95,2.693,2.934C16.881,21.487,17.531,22.118,18.181,22.676Z" transform="translate(3.714 3.714)" opacity="0.4"/>
          <path id="Vector-4" data-name="Vector" d="M22.973,7.967a4.716,4.716,0,0,1-.279,1.579,4.535,4.535,0,0,1-.186.446,7.663,7.663,0,0,1-1.263,1.894A8.372,8.372,0,0,1,18.2,14.077c-.019,0-.037.019-.056.019a9.382,9.382,0,0,1-3.566.687,15.477,15.477,0,0,1-6.054-1.356A32.619,32.619,0,0,1,2.136,9.75C1.411,9.211.687,8.673,0,8.1L6.073,2.024a10.434,10.434,0,0,0,1.374.891c.093.037.2.093.334.149a1.282,1.282,0,0,0,.464.074,1.022,1.022,0,0,0,.761-.316L10.418,1.43A5.7,5.7,0,0,1,11.756.39,2.473,2.473,0,0,1,13.074,0a2.964,2.964,0,0,1,1.133.241,7.183,7.183,0,0,1,1.3.724L21.654,5.33a2.817,2.817,0,0,1,1.021,1.189A3.81,3.81,0,0,1,22.973,7.967Z" transform="translate(18.257 26.503)"/>
          <path id="Vector-5" data-name="Vector" d="M0,0H45V45H0Z" fill="none" opacity="0"/>
        </g>
      </g>
    </g>
  </g>
</svg>
