<?xml version="1.0"?><svg xmlns="http://www.w3.org/2000/svg" width="24" height="24" viewBox="0 0 24 24" fill="none"><path d="M17.4129 8.93848L10.5 16.4798L6.58712 12.2112L8.06143 10.8598L10.5 13.52L15.9386 7.58703L17.4129 8.93848Z" fill="black"/><path fill-rule="evenodd" clip-rule="evenodd" d="M12 0.585693L14.4142 2.99991H22V12.8009C22 16.3576 19.9054 19.5807 16.6552 21.0252L12 23.0942L7.34475 21.0252C4.0946 19.5807 2 16.3576 2 12.8009V2.99991H9.58579L12 0.585693ZM12 3.41412L10.4142 4.99991H4V12.8009C4 15.5672 5.62914 18.0741 8.15703 19.1976L12 20.9056L15.843 19.1976C18.3709 18.0741 20 15.5672 20 12.8009V4.99991H13.5858L12 3.41412Z" fill="black"/></svg>