<svg xmlns="http://www.w3.org/2000/svg" width="91.72" height="75" viewBox="0 0 91.72 75">
  <g id="Group_100" data-name="Group 100" transform="translate(-431.236 -120.95)" opacity="0.15">
    <path id="Path_9" data-name="Path 9" d="M433.877,180.359a2.64,2.64,0,1,0,2.639,2.64A2.64,2.64,0,0,0,433.877,180.359Z" transform="translate(0 10.311)" fill="#199ebd"/>
    <path id="Path_10" data-name="Path 10" d="M448.6,180.359a2.64,2.64,0,1,0,2.64,2.64A2.64,2.64,0,0,0,448.6,180.359Z" transform="translate(2.561 10.311)" fill="#199ebd"/>
    <path id="Path_11" data-name="Path 11" d="M463.331,180.359a2.64,2.64,0,1,0,2.64,2.64A2.64,2.64,0,0,0,463.331,180.359Z" transform="translate(5.122 10.311)" fill="#199ebd"/>
    <path id="Path_12" data-name="Path 12" d="M478.058,180.359A2.64,2.64,0,1,0,480.7,183,2.64,2.64,0,0,0,478.058,180.359Z" transform="translate(7.683 10.311)" fill="#199ebd"/>
    <path id="Path_13" data-name="Path 13" d="M492.785,180.359a2.64,2.64,0,1,0,2.64,2.64A2.64,2.64,0,0,0,492.785,180.359Z" transform="translate(10.244 10.311)" fill="#199ebd"/>
    <path id="Path_14" data-name="Path 14" d="M507.512,180.359a2.64,2.64,0,1,0,2.64,2.64A2.64,2.64,0,0,0,507.512,180.359Z" transform="translate(12.804 10.311)" fill="#199ebd"/>
    <path id="Path_15" data-name="Path 15" d="M433.877,168.477a2.64,2.64,0,1,0,2.639,2.641A2.64,2.64,0,0,0,433.877,168.477Z" transform="translate(0 8.249)" fill="#199ebd"/>
    <circle id="Ellipse_3" data-name="Ellipse 3" cx="2.64" cy="2.64" r="2.64" transform="translate(448.524 176.726)" fill="#199ebd"/>
    <circle id="Ellipse_4" data-name="Ellipse 4" cx="2.64" cy="2.64" r="2.64" transform="translate(465.812 176.726)" fill="#199ebd"/>
    <circle id="Ellipse_5" data-name="Ellipse 5" cx="2.64" cy="2.64" r="2.64" transform="translate(483.1 176.726)" fill="#199ebd"/>
    <path id="Path_16" data-name="Path 16" d="M492.785,168.477a2.64,2.64,0,1,0,2.64,2.641A2.64,2.64,0,0,0,492.785,168.477Z" transform="translate(10.244 8.249)" fill="#199ebd"/>
    <path id="Path_17" data-name="Path 17" d="M507.512,168.477a2.64,2.64,0,1,0,2.64,2.641A2.64,2.64,0,0,0,507.512,168.477Z" transform="translate(12.804 8.249)" fill="#199ebd"/>
    <path id="Path_18" data-name="Path 18" d="M433.877,156.595a2.64,2.64,0,1,0,2.639,2.641A2.641,2.641,0,0,0,433.877,156.595Z" transform="translate(0 6.186)" fill="#199ebd"/>
    <circle id="Ellipse_6" data-name="Ellipse 6" cx="2.64" cy="2.64" r="2.64" transform="translate(448.524 162.782)" fill="#199ebd"/>
    <circle id="Ellipse_7" data-name="Ellipse 7" cx="2.64" cy="2.64" r="2.64" transform="translate(465.812 162.782)" fill="#199ebd"/>
    <circle id="Ellipse_8" data-name="Ellipse 8" cx="2.64" cy="2.64" r="2.64" transform="translate(483.1 162.782)" fill="#199ebd"/>
    <path id="Path_19" data-name="Path 19" d="M492.785,156.595a2.64,2.64,0,1,0,2.64,2.641A2.641,2.641,0,0,0,492.785,156.595Z" transform="translate(10.244 6.186)" fill="#199ebd"/>
    <path id="Path_20" data-name="Path 20" d="M507.512,156.595a2.64,2.64,0,1,0,2.64,2.641A2.641,2.641,0,0,0,507.512,156.595Z" transform="translate(12.804 6.186)" fill="#199ebd"/>
    <path id="Path_21" data-name="Path 21" d="M433.877,144.714a2.64,2.64,0,1,0,2.639,2.64A2.64,2.64,0,0,0,433.877,144.714Z" transform="translate(0 4.124)" fill="#199ebd"/>
    <path id="Path_22" data-name="Path 22" d="M448.6,144.714a2.64,2.64,0,1,0,2.64,2.64A2.64,2.64,0,0,0,448.6,144.714Z" transform="translate(2.561 4.124)" fill="#199ebd"/>
    <path id="Path_23" data-name="Path 23" d="M463.331,144.714a2.64,2.64,0,1,0,2.64,2.64A2.64,2.64,0,0,0,463.331,144.714Z" transform="translate(5.122 4.124)" fill="#199ebd"/>
    <path id="Path_24" data-name="Path 24" d="M478.058,144.714a2.64,2.64,0,1,0,2.64,2.64A2.64,2.64,0,0,0,478.058,144.714Z" transform="translate(7.683 4.124)" fill="#199ebd"/>
    <path id="Path_25" data-name="Path 25" d="M492.785,144.714a2.64,2.64,0,1,0,2.64,2.64A2.64,2.64,0,0,0,492.785,144.714Z" transform="translate(10.244 4.124)" fill="#199ebd"/>
    <path id="Path_26" data-name="Path 26" d="M507.512,144.714a2.64,2.64,0,1,0,2.64,2.64A2.64,2.64,0,0,0,507.512,144.714Z" transform="translate(12.804 4.124)" fill="#199ebd"/>
    <path id="Path_27" data-name="Path 27" d="M433.877,132.832a2.64,2.64,0,1,0,2.639,2.641A2.64,2.64,0,0,0,433.877,132.832Z" transform="translate(0 2.062)" fill="#199ebd"/>
    <circle id="Ellipse_9" data-name="Ellipse 9" cx="2.64" cy="2.64" r="2.64" transform="translate(448.524 134.894)" fill="#199ebd"/>
    <circle id="Ellipse_10" data-name="Ellipse 10" cx="2.64" cy="2.64" r="2.64" transform="translate(465.812 134.894)" fill="#199ebd"/>
    <circle id="Ellipse_11" data-name="Ellipse 11" cx="2.64" cy="2.64" r="2.64" transform="translate(483.1 134.894)" fill="#199ebd"/>
    <path id="Path_28" data-name="Path 28" d="M492.785,132.832a2.64,2.64,0,1,0,2.64,2.641A2.64,2.64,0,0,0,492.785,132.832Z" transform="translate(10.244 2.062)" fill="#199ebd"/>
    <path id="Path_29" data-name="Path 29" d="M507.512,132.832a2.64,2.64,0,1,0,2.64,2.641A2.64,2.64,0,0,0,507.512,132.832Z" transform="translate(12.804 2.062)" fill="#199ebd"/>
    <path id="Path_30" data-name="Path 30" d="M433.877,120.95a2.64,2.64,0,1,0,2.639,2.641A2.641,2.641,0,0,0,433.877,120.95Z" transform="translate(0)" fill="#199ebd"/>
    <circle id="Ellipse_12" data-name="Ellipse 12" cx="2.64" cy="2.64" r="2.64" transform="translate(448.524 120.95)" fill="#199ebd"/>
    <circle id="Ellipse_13" data-name="Ellipse 13" cx="2.64" cy="2.64" r="2.64" transform="translate(465.812 120.95)" fill="#199ebd"/>
    <circle id="Ellipse_14" data-name="Ellipse 14" cx="2.64" cy="2.64" r="2.64" transform="translate(483.1 120.95)" fill="#199ebd"/>
    <path id="Path_31" data-name="Path 31" d="M492.785,120.95a2.64,2.64,0,1,0,2.64,2.641A2.641,2.641,0,0,0,492.785,120.95Z" transform="translate(10.244)" fill="#199ebd"/>
    <path id="Path_32" data-name="Path 32" d="M507.512,120.95a2.64,2.64,0,1,0,2.64,2.641A2.641,2.641,0,0,0,507.512,120.95Z" transform="translate(12.804)" fill="#199ebd"/>
  </g>
</svg>
