<?xml version="1.0"?><!DOCTYPE svg  PUBLIC '-//W3C//DTD SVG 1.1//EN'  'http://www.w3.org/Graphics/SVG/1.1/DTD/svg11.dtd'><svg height="42px" style="fill-rule:evenodd;clip-rule:evenodd;stroke-linejoin:round;stroke-miterlimit:2;" version="1.1" width="42px" xml:space="preserve" xmlns="http://www.w3.org/2000/svg" xmlns:serif="http://www.serif.com/" xmlns:xlink="http://www.w3.org/1999/xlink"><path d="M19,38l4,0c0.552,-0 1,-0.448 1,-1c-0,-0.552 -0.448,-1 -1,-1l-4,0c-0.552,-0 -1,0.448 -1,1c-0,0.552 0.448,1 1,1Z"/><path d="M18,35l6,0c0.552,-0 1,-0.448 1,-1c-0,-0.552 -0.448,-1 -1,-1l-6,0c-0.552,-0 -1,0.448 -1,1c-0,0.552 0.448,1 1,1Z"/><path d="M17.957,31.996l0.043,0.004l6,-0l-0,-0l-0,-0l0.044,-0c0.552,-0.002 0.998,-0.449 0.998,-1c0,-1.609 0.709,-3.135 1.938,-4.172c2.005,-1.632 2.882,-4.135 2.882,-6.966c0,-4.891 -3.971,-8.862 -8.862,-8.862c-4.891,-0 -8.862,3.971 -8.862,8.862c-0,2.84 0.884,5.349 2.919,6.942c1.228,1.037 1.943,2.574 1.943,4.195l-0,-0c-0,0.822 0.766,0.972 0.957,0.997Zm5.153,-1.996l-4.177,-0c-0.247,-1.84 -1.171,-3.536 -2.611,-4.745c-0.009,-0.007 -0.018,-0.015 -0.027,-0.022c-1.567,-1.223 -2.157,-3.188 -2.157,-5.371c-0,-3.787 3.075,-6.862 6.862,-6.862c3.787,-0 6.862,3.075 6.862,6.862c0,2.189 -0.596,4.159 -2.144,5.414c-0.004,0.003 -0.009,0.007 -0.013,0.011c-1.43,1.201 -2.349,2.886 -2.595,4.713Z"/><path d="M20.001,25l-0.001,-0l-0,2c-0,0.552 0.448,1 1,1c0.552,-0 1,-0.448 1,-1l-0,-1.951c0.001,-0.016 0.001,-0.033 0.001,-0.049c0,-0.402 0.239,-0.766 0.607,-0.927c1.308,-0.561 2.373,-1.479 2.392,-3.187c0.024,-2.211 -1.789,-4.011 -4,-4.011c-2.208,0 -4,1.792 -4,4c-0,0.552 0.448,1 1,1c0.552,0 1,-0.448 1,-1c-0,-1.104 0.896,-2 2,-2c1.101,0 2.012,0.888 2,1.989c-0.008,0.778 -0.589,1.118 -1.185,1.373c-0.002,0.001 -0.004,0.002 -0.006,0.003c-1.098,0.478 -1.808,1.562 -1.808,2.76Z"/><path d="M22,9l0,-2c0,-0.552 -0.448,-1 -1,-1c-0.552,-0 -1,0.448 -1,1l-0,2c-0,0.552 0.448,1 1,1c0.552,0 1,-0.448 1,-1Z"/><path d="M30.546,13.368l1.414,-1.414c0.39,-0.391 0.39,-1.024 -0,-1.415c-0.39,-0.39 -1.024,-0.39 -1.414,0l-1.415,1.415c-0.39,0.39 -0.39,1.024 0,1.414c0.391,0.39 1.024,0.39 1.415,-0Z"/><path d="M33.5,22.499l2,-0c0.552,-0 1,-0.448 1,-1c-0,-0.552 -0.448,-1 -1,-1l-2,-0c-0.552,-0 -1,0.448 -1,1c0,0.552 0.448,1 1,1Z"/><path d="M29.133,31.045l1.414,1.414c0.391,0.39 1.024,0.39 1.414,-0c0.391,-0.39 0.391,-1.024 0,-1.414l-1.414,-1.414c-0.39,-0.391 -1.024,-0.391 -1.414,-0c-0.39,0.39 -0.39,1.024 -0,1.414Z"/><path d="M11.456,29.634l-1.414,1.414c-0.39,0.391 -0.39,1.024 0,1.414c0.39,0.391 1.024,0.391 1.414,0l1.414,-1.414c0.391,-0.391 0.39,-1.024 0,-1.414c-0.39,-0.391 -1.024,-0.391 -1.414,-0Z"/><path d="M8.5,20.503l-2,0.001c-0.552,-0 -1,0.448 -1,1c0,0.552 0.448,1 1,1l2,-0.001c0.552,0 1,-0.448 1,-1c-0,-0.552 -0.448,-1 -1,-1Z"/><path d="M12.865,11.957l-1.414,-1.414c-0.391,-0.39 -1.024,-0.39 -1.414,0c-0.391,0.39 -0.39,1.024 -0,1.414l1.415,1.414c0.39,0.39 1.024,0.39 1.414,-0c0.39,-0.391 0.39,-1.024 -0.001,-1.414Z"/></svg>