<svg width="17" height="15" viewBox="0 0 17 15" fill="none" xmlns="http://www.w3.org/2000/svg">
<g clip-path="url(#clip0_216_2)">
<path d="M1.473 8.839L11.667 8.839L8.291 12.218C8.0268 12.4962 7.88168 12.8666 7.88655 13.2503C7.89141 13.6339 8.04589 14.0005 8.31707 14.272C8.58824 14.5434 8.95468 14.6982 9.33833 14.7035C9.72198 14.7087 10.0925 14.5639 10.371 14.3L16.264 8.407C16.5377 8.12965 16.6912 7.75566 16.6912 7.366C16.6912 6.97633 16.5377 6.60234 16.264 6.325L10.371 0.431998C10.2344 0.29503 10.0722 0.186358 9.89356 0.112208C9.71492 0.0380588 9.52341 -0.000109673 9.33 -0.000109673C9.13659 -0.000109673 8.94508 0.0380588 8.76644 0.112208C8.58781 0.186358 8.42556 0.29503 8.289 0.431998C8.01529 0.709344 7.86182 1.08333 7.86182 1.473C7.86182 1.86266 8.01529 2.23665 8.289 2.514L11.667 5.893L1.473 5.893C1.27956 5.893 1.08802 5.9311 0.909307 6.00512C0.730595 6.07915 0.568212 6.18765 0.431431 6.32443C0.29465 6.46121 0.186151 6.62359 0.112125 6.80231C0.0381002 6.98102 0 7.17256 0 7.366C0 7.55944 0.0381002 7.75098 0.112125 7.92969C0.186151 8.1084 0.29465 8.27079 0.431431 8.40757C0.568212 8.54435 0.730595 8.65285 0.909307 8.72687C1.08802 8.8009 1.27956 8.839 1.473 8.839V8.839Z" fill="#199EBD"/>
</g>
<defs>
<clipPath id="clip0_216_2">
<rect width="16.691" height="14.727" fill="white" transform="translate(16.691 14.727) rotate(-180)"/>
</clipPath>
</defs>
</svg>
