<svg xmlns="http://www.w3.org/2000/svg" width="60" height="60" viewBox="0 0 60 60">
  <g id="sms" transform="translate(-443 -5103)">
    <g id="sms_bulk" data-name="sms/bulk" transform="translate(443 5103)">
      <g id="vuesax_bulk_sms" data-name="vuesax/bulk/sms">
        <g id="sms-2" data-name="sms">
          <path id="Vector" d="M0,0H60V60H0Z" fill="none" opacity="0"/>
          <path id="Vector-2" data-name="Vector" d="M37.431,42.338H12.477C4.991,42.338,0,38.6,0,29.886V12.452C0,3.736,4.991,0,12.477,0H37.431c7.486,0,12.477,3.736,12.477,12.452V29.886C49.907,38.6,44.917,42.338,37.431,42.338Z" transform="translate(5.046 8.831)" opacity="0.4"/>
          <g id="Group" transform="translate(15.485 20.565)">
            <path id="Vector-3" data-name="Vector" d="M14.515,11.672a9.379,9.379,0,0,1-5.9-1.993L.713,3.371A1.886,1.886,0,1,1,3.06.418l7.9,6.308a6.021,6.021,0,0,0,7.09,0l7.9-6.308a1.862,1.862,0,0,1,2.649.3,1.862,1.862,0,0,1-.3,2.649l-7.9,6.308A9.26,9.26,0,0,1,14.515,11.672Z" transform="translate(0)"/>
          </g>
        </g>
      </g>
    </g>
  </g>
</svg>
