<svg xmlns="http://www.w3.org/2000/svg" width="24" height="24" viewBox="0 0 24 24">
  <g id="write" transform="translate(-731 -5076)">
    <g id="edit-2_bulk" data-name="edit-2/bulk" transform="translate(731 5076)">
      <g id="vuesax_bulk_edit-2" data-name="vuesax/bulk/edit-2">
        <g id="edit-2">
          <path id="Vector" d="M.75,1.5h18A.755.755,0,0,0,19.5.75.755.755,0,0,0,18.75,0H.75A.755.755,0,0,0,0,.75.755.755,0,0,0,.75,1.5Z" transform="translate(2.25 20.5)" opacity="0.4"/>
          <path id="Vector-2" data-name="Vector" d="M1.47,1.474c1.94-1.94,3.84-1.99,5.83,0l1.21,1.21a.417.417,0,0,1,.1.4,8.129,8.129,0,0,1-5.53,5.53.5.5,0,0,1-.12.02.4.4,0,0,1-.29-.12L1.47,7.3A4.133,4.133,0,0,1,0,4.414,4.117,4.117,0,0,1,1.47,1.474Z" transform="translate(3.51 2.006)" opacity="0.4"/>
          <path id="Vector-3" data-name="Vector" d="M.85,5.48c.29-.14.57-.28.84-.44.22-.13.43-.27.64-.42a6.038,6.038,0,0,0,.56-.43,1.22,1.22,0,0,0,.17-.15A8.457,8.457,0,0,0,4.09,3a1.218,1.218,0,0,0,.15-.18,5.816,5.816,0,0,0,.42-.55,5.491,5.491,0,0,0,.39-.59c.16-.27.3-.54.44-.82.14-.3.25-.59.35-.86l6.28,6.28a1.2,1.2,0,0,1,.28.55l.54,3.83a2.05,2.05,0,0,1-.51,1.75,1.991,1.991,0,0,1-1.4.54,2.186,2.186,0,0,1-.36-.03l-3.84-.54a1.113,1.113,0,0,1-.55-.28L0,5.82C.28,5.72.55,5.61.85,5.48Z" transform="translate(7.54 6.05)"/>
          <path id="Vector-4" data-name="Vector" d="M24,0H0V24H24Z" fill="none" opacity="0"/>
        </g>
      </g>
    </g>
  </g>
</svg>
