<svg width="24" height="24" viewBox="0 0 24 24" fill="#000" xmlns="http://www.w3.org/2000/svg">
<g clip-path="url(#clip0_1_3509)">
<path d="M0 3.36363C0 2.60604 0.270278 1.98104 0.810811 1.48864C1.35134 0.996204 2.05406 0.75 2.91892 0.75C3.76835 0.75 4.45559 0.992409 4.98069 1.47727C5.52123 1.97727 5.79151 2.62877 5.79151 3.43181C5.79151 4.15909 5.52897 4.76513 5.00386 5.24999C4.46333 5.74999 3.7529 5.99999 2.87259 5.99999H2.84942C1.99999 5.99999 1.31275 5.74999 0.787645 5.24999C0.262541 4.74999 0 4.1212 0 3.36363ZM0.301158 23.25V8.06817H5.44402V23.25H0.301158ZM8.29344 23.25H13.4363V14.7727C13.4363 14.2424 13.4981 13.8333 13.6216 13.5454C13.8378 13.0303 14.166 12.5947 14.6062 12.2386C15.0463 11.8825 15.5984 11.7045 16.2625 11.7045C17.9923 11.7045 18.8571 12.8485 18.8571 15.1363V23.25H24V14.5454C24 12.303 23.4595 10.6023 22.3784 9.44317C21.2973 8.28408 19.8687 7.70453 18.0927 7.70453C16.1004 7.70453 14.5483 8.54544 13.4363 10.2273V10.2727H13.4131L13.4363 10.2273V8.06817H8.29344C8.32432 8.55301 8.33977 10.0606 8.33977 12.5909C8.33977 15.1212 8.32432 18.6742 8.29344 23.25Z" fill="#fff"/>
</g>
<defs>
<clipPath id="clip0_1_3509">
<rect width="24" height="22.5" fill="#fff" transform="translate(0 0.75)"/>
</clipPath>
</defs>
</svg>
