<svg xmlns="http://www.w3.org/2000/svg" width="19.838" height="18.6" viewBox="0 0 19.838 18.6">
  <g id="svgexport-10_13_" data-name="svgexport-10 (13)" transform="translate(0 -15.988)">
    <g id="Group_10" data-name="Group 10" transform="translate(0 15.988)">
      <g id="Group_9" data-name="Group 9" transform="translate(0 0)">
        <path id="Path_6565" data-name="Path 6565" d="M19.449,29.877a5.73,5.73,0,0,1-3.9-3.269.188.188,0,0,0-.011-.022.82.82,0,0,1-.093-.675c.145-.34.7-.516,1.068-.632.107-.033.207-.066.29-.1a2.245,2.245,0,0,0,.791-.472.751.751,0,0,0,.241-.541.851.851,0,0,0-.637-.738,1.152,1.152,0,0,0-.432-.082.961.961,0,0,0-.4.082,2.255,2.255,0,0,1-.827.236.759.759,0,0,1-.274-.06c.007-.124.015-.252.024-.383l0-.057a9.821,9.821,0,0,0-.253-4.005,5.388,5.388,0,0,0-1.214-1.737,5.076,5.076,0,0,0-1.452-.957,5.737,5.737,0,0,0-2.265-.479h-.05l-.341,0a5.759,5.759,0,0,0-2.268.479A5.048,5.048,0,0,0,6,17.426,5.4,5.4,0,0,0,4.8,19.16a9.829,9.829,0,0,0-.254,4v0c.009.144.019.294.027.44a.8.8,0,0,1-.325.061,2.151,2.151,0,0,1-.884-.237.794.794,0,0,0-.336-.069,1.188,1.188,0,0,0-.594.166.822.822,0,0,0-.42.537.741.741,0,0,0,.283.7,2.438,2.438,0,0,0,.739.423c.084.033.185.064.29.1.367.117.924.293,1.069.632a.826.826,0,0,1-.094.675.176.176,0,0,0-.01.022,6.566,6.566,0,0,1-1,1.545,5.608,5.608,0,0,1-1.205,1.064,4.435,4.435,0,0,1-1.693.658A.463.463,0,0,0,0,30.359a.587.587,0,0,0,.048.2h0a1.239,1.239,0,0,0,.672.574,7.675,7.675,0,0,0,1.941.5,2.354,2.354,0,0,1,.119.427c.032.149.066.3.114.465a.508.508,0,0,0,.532.387,2.59,2.59,0,0,0,.456-.063,5.189,5.189,0,0,1,1.04-.118,4.521,4.521,0,0,1,.744.063,3.534,3.534,0,0,1,1.39.718A4.5,4.5,0,0,0,9.8,34.587q.05,0,.1,0c.04,0,.091,0,.143,0a4.507,4.507,0,0,0,2.74-1.066h0a3.546,3.546,0,0,1,1.39-.717,4.521,4.521,0,0,1,.744-.063,5.213,5.213,0,0,1,1.04.11,2.514,2.514,0,0,0,.456.056h.022a.5.5,0,0,0,.51-.381c.047-.16.081-.309.114-.461a2.435,2.435,0,0,1,.118-.424,7.728,7.728,0,0,0,1.941-.5,1.244,1.244,0,0,0,.671-.573.589.589,0,0,0,.05-.2A.461.461,0,0,0,19.449,29.877Z" transform="translate(0 -15.988)" fill="#fff"/>
      </g>
    </g>
  </g>
</svg>
