<svg width="23" height="26" viewBox="0 0 23 26" fill="none" xmlns="http://www.w3.org/2000/svg">
<g clip-path="url(#clip0_2157_48881)">
<path d="M22.4891 6.36195C21.1133 6.36448 19.7744 5.91798 18.6764 5.09045C17.9004 4.50853 17.2693 3.75576 16.8321 2.89066C16.395 2.02556 16.1636 1.07145 16.156 0.102539H12.0683V11.2567V17.3665C12.0698 18.1491 11.8227 18.912 11.3625 19.5456C10.9024 20.1792 10.2529 20.6509 9.50735 20.8928C8.76184 21.1346 7.95871 21.1343 7.21339 20.8918C6.46807 20.6494 5.81894 20.1772 5.3593 19.5432C4.89965 18.9093 4.65317 18.1461 4.65526 17.3635C4.65735 16.5809 4.90791 15.8191 5.37094 15.1876C5.83396 14.5561 6.48561 14.0874 7.23221 13.8489C7.97882 13.6104 8.78194 13.6143 9.52615 13.8602V9.71564C9.13415 9.65682 8.73833 9.62701 8.34192 9.62644C7.22923 9.62247 6.12844 9.85496 5.11268 10.3085C4.09692 10.7619 3.18945 11.4261 2.45057 12.2567C1.13659 13.7268 0.43961 15.6453 0.504108 17.6146C0.568606 19.5838 1.38964 21.4528 2.797 22.834C3.02971 23.0637 3.27635 23.2788 3.53553 23.4782C4.91307 24.5356 6.60334 25.1062 8.34093 25.1006C8.7356 25.1008 9.12976 25.0719 9.52019 25.0143C11.172 24.7721 12.7026 24.008 13.8878 22.834C14.6126 22.1247 15.1888 21.2786 15.583 20.3449C15.9771 19.4111 16.1814 18.4085 16.1838 17.3952L16.162 8.27466C17.9784 9.67218 20.2078 10.4285 22.501 10.4252V6.36195H22.4891Z" fill="#fff"/>
</g>
<defs>
<clipPath id="clip0_2157_48881">
<rect width="22" height="25" fill="white" transform="translate(0.5 0.102539)"/>
</clipPath>
</defs>
</svg>
